<?xml version="1.0" encoding="UTF-8" standalone="no"?>
<!DOCTYPE svg PUBLIC "-//W3C//DTD SVG 1.1//EN" "http://www.w3.org/Graphics/SVG/1.1/DTD/svg11.dtd">
<svg width="100%" height="100%" viewBox="0 0 1863 572" version="1.1" xmlns="http://www.w3.org/2000/svg" style="fill-rule:evenodd;clip-rule:evenodd;stroke-linejoin:round;stroke-miterlimit:2;">
    <g transform="matrix(1,0,0,1,-1520.67,-710.833)">
        <g transform="matrix(4.16667,0,0,4.16667,0,0)">
            <g transform="matrix(1,0,0,1,374.543,268.081)">
                <path d="M0,13.784C1.387,13.784 2.283,12.968 2.283,11.664C2.283,10.48 1.387,9.502 0,9.502L-3.629,9.502L-3.629,13.784L0,13.784ZM-0.775,4.404C0.611,4.404 1.591,3.466 1.591,2.12C1.591,0.856 0.611,-0.122 -0.775,-0.122L-3.629,-0.122L-3.629,4.404L-0.775,4.404ZM-9.583,-5.342L0.286,-5.342C4.363,-5.342 7.626,-2.324 7.626,1.508C7.626,3.792 6.687,5.22 4.975,6.524L4.975,6.606C7.504,8.4 8.563,10.114 8.563,12.642C8.563,16.026 5.873,19.126 1.224,19.126L-9.583,19.126L-9.583,-5.342Z" style="fill:rgb(30,40,38);fill-rule:nonzero;"/>
            </g>
        </g>
        <g transform="matrix(4.16667,0,0,4.16667,0,0)">
            <g transform="matrix(1,0,0,1,404.955,276.605)">
                <path d="M0,-3.264C1.345,-3.264 2.242,-4.65 2.242,-6.078C2.242,-7.504 1.182,-8.77 -0.165,-8.77L-4.813,-8.77L-4.813,-3.264L0,-3.264ZM-10.808,-13.866L-0.571,-13.866C4.688,-13.866 8.114,-10.686 8.114,-6.078C8.114,-1.796 5.954,0.61 2.323,1.508L8.931,10.602L1.427,10.602L-4.813,1.468L-4.813,10.602L-10.808,10.602L-10.808,-13.866Z" style="fill:rgb(30,40,38);fill-rule:nonzero;"/>
            </g>
        </g>
        <g transform="matrix(4.16667,0,0,4.16667,0,0)">
            <g transform="matrix(1,0,0,1,0,76.979)">
                <rect x="424.149" y="185.76" width="5.995" height="24.468" style="fill:rgb(30,40,38);"/>
            </g>
        </g>
        <g transform="matrix(4.16667,0,0,4.16667,0,0)">
            <g transform="matrix(1,0,0,1,450.609,268.203)">
                <path d="M0,13.54C3.834,13.54 6.77,10.848 6.77,6.728C6.77,2.936 4.201,-0.04 0,-0.04L-2.406,-0.04L-2.406,13.54L0,13.54ZM-8.401,-5.464L0.123,-5.464C7.341,-5.464 12.928,-0.164 12.928,6.728C12.928,13.254 7.953,19.004 0.123,19.004L-8.401,19.004L-8.401,-5.464Z" style="fill:rgb(30,40,38);fill-rule:nonzero;"/>
            </g>
        </g>
        <g transform="matrix(4.16667,0,0,4.16667,0,0)">
            <g transform="matrix(1,0,0,1,485.832,288.024)">
                <path d="M0,-26.101C4.527,-26.101 7.667,-24.429 10.236,-21.819L6.076,-17.985C4.404,-19.495 2.325,-20.433 0,-20.433C-4.364,-20.433 -7.177,-17.171 -7.177,-13.051C-7.177,-8.525 -3.956,-5.668 0.122,-5.668C4.404,-5.668 6.484,-8.035 6.646,-10.401L-0.326,-10.401L-0.326,-15.579L13.132,-15.579L13.132,-13.255C13.132,-6.037 8.89,0 0,0C-7.748,0 -13.254,-5.75 -13.254,-13.051C-13.254,-20.351 -7.748,-26.101 0,-26.101" style="fill:rgb(30,40,38);fill-rule:nonzero;"/>
            </g>
        </g>
        <g transform="matrix(4.16667,0,0,4.16667,0,0)">
            <g transform="matrix(1,0,0,1,507.961,287.207)">
                <path d="M0,-24.468L16.191,-24.468L16.191,-19.168L5.995,-19.168L5.995,-14.762L15.417,-14.762L15.417,-9.542L5.995,-9.542L5.995,-5.138L16.64,-5.138L16.64,0L0,0L0,-24.468Z" style="fill:rgb(30,40,38);fill-rule:nonzero;"/>
            </g>
        </g>
        <g transform="matrix(4.16667,0,0,4.16667,0,0)">
            <g transform="matrix(1,0,0,1,539.963,281.907)">
                <path d="M0,-13.868L-5.464,-13.868L-5.464,-19.168L11.583,-19.168L11.583,-13.868L6.036,-13.868L6.036,5.3L0,5.3L0,-13.868Z" style="fill:rgb(30,40,38);fill-rule:nonzero;"/>
            </g>
        </g>
        <g transform="matrix(4.16667,0,0,4.16667,0,0)">
            <g transform="matrix(1,0,0,1,574.253,267.591)">
                <path d="M0,14.765C4.322,14.765 7.095,11.5 7.095,7.383C7.095,3.263 4.322,0 0,0C-4.364,0 -7.096,3.263 -7.096,7.383C-7.096,11.5 -4.364,14.765 0,14.765M0,-5.668C7.707,-5.668 13.172,0.082 13.172,7.383C13.172,14.683 7.707,20.433 0,20.433C-7.749,20.433 -13.173,14.683 -13.173,7.383C-13.173,0.082 -7.749,-5.668 0,-5.668" style="fill:rgb(30,40,38);fill-rule:nonzero;"/>
            </g>
        </g>
        <g transform="matrix(4.16667,0,0,4.16667,0,0)">
            <g transform="matrix(1,0,0,1,595.415,288.023)">
                <path d="M0,-25.284L6.28,-25.284L11.216,-13.744L14.192,-21.41L15.683,-25.284L18.842,-25.284L20.489,-21.412L23.735,-13.784L28.221,-25.284L34.461,-25.284L24.266,0L23.449,0L17.413,-14.11L11.583,0L10.808,0L0,-25.284Z" style="fill:rgb(30,40,38);fill-rule:nonzero;"/>
            </g>
        </g>
        <g transform="matrix(4.16667,0,0,4.16667,0,0)">
            <g transform="matrix(1,0,0,1,639.899,287.207)">
                <path d="M0,-24.468L6.322,-24.468L15.825,-9.95L15.825,-24.468L21.779,-24.468L21.779,0L15.539,0L5.995,-14.558L5.995,0L0,0L0,-24.468Z" style="fill:rgb(30,40,38);fill-rule:nonzero;"/>
            </g>
        </g>
        <g transform="matrix(4.16667,0,0,4.16667,0,0)">
            <g transform="matrix(1,0,0,1,724.324,209.37)">
                <path d="M0,29.41C-72.335,-66.167 -179.131,-55.549 -222.588,25.781C-227.373,34.738 -221.818,40.631 -219.109,39.985C-214.298,38.838 -197.926,32.314 -192.966,30.318C-190.894,29.485 -189.207,25.502 -187.375,21.877C-150.071,-51.956 -100.392,-60.124 -29.16,95.577C-32.607,77.837 -25.455,57.889 -2.274,37.237C0.394,34.86 2.589,32.831 0,29.41" style="fill:rgb(58,109,98);fill-rule:nonzero;"/>
            </g>
        </g>
        <g transform="matrix(4.16667,0,0,4.16667,0,0)">
            <g transform="matrix(0.249711,-0.96832,-0.96832,-0.249711,486.176,197.302)">
                <path d="M-12.21,-30.272C-28.365,-22.83 -44.336,-18.635 -46.819,-29.09C-48.223,-18.969 -9.68,-0.335 -12.21,21.62C-12.329,22.654 -10.713,22.914 -10.274,21.97C-1.487,3.05 -6.95,-23.042 -12.21,-30.272" style="fill:rgb(58,109,98);fill-rule:nonzero;"/>
            </g>
        </g>
        <g transform="matrix(4.16667,0,0,4.16667,0,0)">
            <g transform="matrix(1,0,0,1,810.402,309.68)">
                <path d="M0,-88.196C1.54,-88.196 2.104,-85.899 0.603,-85.55C-30.253,-78.37 -43.813,-48.307 -44.559,-31.561C-44.807,-26.006 -49.573,-25.025 -55.084,-22.473C-61.232,-19.625 -90.024,-7.312 -100.946,-3.404C-106.293,-1.49 -114.206,0.003 -114.576,-8.251C-116.052,-41.137 -81.521,-88.199 0,-88.196" style="fill:rgb(58,109,98);fill-rule:nonzero;"/>
            </g>
        </g>
        <g transform="matrix(4.16667,0,0,4.16667,0,0)">
            <g transform="matrix(-126.776,-126.776,-126.776,126.776,684.306,302.422)">
                <path d="M0.982,0.451C0.969,0.497 0.927,0.51 0.915,0.489C0.908,0.475 0.904,0.461 0.922,0.407C1.064,-0.03 0.945,-0.409 -0,-0.064C0.038,-0.102 0.068,-0.161 0.081,-0.234C0.45,-0.351 0.717,-0.297 0.868,-0.146C1.006,-0.008 1.047,0.21 0.982,0.451Z" style="fill:url(#_Linear1);fill-rule:nonzero;"/>
            </g>
        </g>
        <g transform="matrix(4.16667,0,0,4.16667,0,0)">
            <g transform="matrix(0,-49.0052,-49.0052,0,756.207,273.884)">
                <path d="M1,-0.813C0.989,-0.345 0.777,0.495 0.044,0.821C0.016,0.833 -0.014,0.798 0.007,0.775C0.271,0.479 0.447,0.027 0.429,-0.27C0.429,-0.28 0.427,-0.288 0.436,-0.292C0.61,-0.373 0.828,-0.554 0.969,-0.821C0.977,-0.837 1,-0.831 1,-0.814L1,-0.813Z" style="fill:url(#_Linear2);fill-rule:nonzero;"/>
            </g>
        </g>
        <g transform="matrix(4.16667,0,0,4.16667,0,0)">
            <g transform="matrix(30.5248,-8.50108,-8.50108,-30.5248,478.044,231.713)">
                <path d="M0.489,-0.516C0.521,-0.344 0.815,-0.062 1.05,0.111C0.884,0.153 0.635,0.169 0.489,0.081C0.474,0.152 0.308,0.424 0.152,0.616C0.317,0.306 0.438,-0.424 0.489,-0.516Z" style="fill:url(#_Linear3);fill-rule:nonzero;"/>
            </g>
        </g>
    </g>
    <defs>
        <linearGradient id="_Linear1" x1="0" y1="0" x2="1" y2="0" gradientUnits="userSpaceOnUse" gradientTransform="matrix(1,0,0,-1,0,0.100447)"><stop offset="0" style="stop-color:rgb(58,109,98);stop-opacity:1"/><stop offset="0.95" style="stop-color:rgb(44,73,73);stop-opacity:1"/><stop offset="1" style="stop-color:rgb(44,73,73);stop-opacity:1"/></linearGradient>
        <linearGradient id="_Linear2" x1="0" y1="0" x2="1" y2="0" gradientUnits="userSpaceOnUse" gradientTransform="matrix(1,0,0,-1,0,-0.00347458)"><stop offset="0" style="stop-color:rgb(58,109,98);stop-opacity:1"/><stop offset="0.95" style="stop-color:rgb(44,73,73);stop-opacity:1"/><stop offset="1" style="stop-color:rgb(44,73,73);stop-opacity:1"/></linearGradient>
        <linearGradient id="_Linear3" x1="0" y1="0" x2="1" y2="0" gradientUnits="userSpaceOnUse" gradientTransform="matrix(-0.268287,-0.963339,-0.963339,0.268287,0.634136,0.481664)"><stop offset="0" style="stop-color:rgb(58,109,98);stop-opacity:1"/><stop offset="0.95" style="stop-color:rgb(44,73,73);stop-opacity:1"/><stop offset="1" style="stop-color:rgb(44,73,73);stop-opacity:1"/></linearGradient>
    </defs>
</svg>
