<svg clip-rule="evenodd" fill-rule="evenodd" stroke-linejoin="round" stroke-miterlimit="2" viewBox="0 0 2261 589" xmlns="http://www.w3.org/2000/svg"><g transform="translate(-169.817 -343.833)"><path d="m199.989 700.467c31.723 1.335 66.117 17.826 99.966 40.895 58.66 39.978 115.557 99.686 153.999 134.861 20.972 19.19 37.628 30.653 46.218 30.57 6.601-.065 24.127-14.633 49.05-40.863 70.376-74.068 214.341-238.977 391.727-354.418 109.661-71.363 232.071-124.287 358.831-121.851 121.72.833 243.74 56.747 354.92 129.838 175.56 115.411 323.84 275.203 395.73 347.294 25.55 25.614 43.21 39.877 49.25 40.054 9.04.265 25.64-11.374 46.3-30.983 37.86-35.929 93.59-97.006 152.86-136.931 33.45-22.535 68-38.323 101.16-38.933-33.45-.714-68.94 13.811-103.54 35.251-61.03 37.817-119.18 97.16-158.49 131.86-17.55 15.489-30.23 26.525-37.65 26.042-1.31-.086-3-2.078-5.91-4.531-7.58-6.404-18.52-17.768-32.6-32.818-70.27-75.139-214.82-241.864-389.87-361.974-115.26-79.089-243.86-137.182-371.72-139.491-133.31-.758-262.14 54.834-375.884 132.207-176.985 120.393-317.511 291.95-386.463 368.913-13.777 15.378-24.553 26.938-32.147 33.367-2.813 2.382-4.504 4.324-5.898 4.381-7.12.292-20.019-10.624-37.931-25.958-39.75-34.027-99.016-91.871-159.294-129.922-35.063-22.134-70.452-37.579-102.592-37.794-.257-.006-.471.198-.478.456-.006.257.198.471.456.478z" transform="translate(0 2.05086)"/><path d="m200.036 700.354s223.655-18.408 549.801-28.914c85.401-2.751 177.808-4.999 275.083-6.455 88.24-1.32 180.46-2.199 275.06-1.542 75.01-.167 148.64.717 220.04 1.649 117.31 1.533 228.58 4.085 330.1 7.318 325.14 10.354 549.88 27.59 549.88 27.59s-224.09-26.431-549.06-45.72c-101.55-6.029-212.94-11.36-330.4-14.587-71.55-1.966-145.35-2.817-220.52-3.164-94.83.434-187.25 1.911-275.65 4.723-97.404 3.098-189.895 7.549-275.334 12.565-326.003 19.14-549.072 45.829-549.072 45.829-.195.02-.338.194-.318.39.02.195.194.338.39.318z" transform="translate(0 -25.0032)"/><path d="m200.012 700.24s223.679-8.644 549.977-13.135c85.372-1.174 177.759-2.093 275.011-2.648 88.21-.503 180.41-.852 274.99-.37 74.99-.085 148.6.393 219.99.793 117.28.655 228.53 1.701 330.01 3.07 325.27 4.389 550.01 12.05 550.01 12.05s-224.52-13.883-549.73-24.316c-101.49-3.256-212.78-6.178-330.11-7.978-71.43-1.096-145.1-1.551-220.15-1.814-94.66.257-186.93 1.008-275.19 2.517-97.298 1.664-189.715 4.07-275.102 6.774-326.252 10.331-549.73 24.577-549.73 24.577-.133.007-.235.12-.228.252.007.133.12.235.252.228z" transform="translate(0 .007397)"/><path d="m797.16 600s-.377 8.231-.694 19.344c-.169 5.908-.38 12.623-.41 19.344-.024 5.29.069 10.581.187 15.475.313 13.015.836 23.212.836 23.212 0 1.612 1.309 2.921 2.921 2.921s2.921-1.309 2.921-2.921c0 0 .523-10.197.836-23.212.118-4.894.211-10.185.187-15.475-.03-6.721-.241-13.436-.41-19.344-.317-11.113-.694-19.344-.694-19.344 0-1.567-1.273-2.84-2.84-2.84s-2.84 1.273-2.84 2.84z"/><path d="m797.16 603.9s-.377 8.076-.694 18.98c-.169 5.797-.38 12.386-.41 18.981-.024 5.191.069 10.382.187 15.184.313 12.772.836 22.777.836 22.777 0 1.612 1.309 2.921 2.921 2.921s2.921-1.309 2.921-2.921c0 0 .523-10.005.836-22.777.118-4.802.211-9.993.187-15.184-.03-6.595-.241-13.184-.41-18.981-.317-10.904-.694-18.98-.694-18.98 0-1.567-1.273-2.84-2.84-2.84s-2.84 1.273-2.84 2.84z" transform="translate(1000)"/><path d="m797.16 603.9s-.377 6.179-.694 14.535c-.169 4.439-.38 9.483-.41 14.534-.024 3.976.069 7.951.187 11.628.313 9.788.836 17.442.836 17.442 0 1.612 1.309 2.922 2.921 2.922s2.921-1.31 2.921-2.922c0 0 .523-7.654.836-17.442.118-3.677.211-7.652.187-11.628-.03-5.051-.241-10.095-.41-14.534-.317-8.356-.694-14.535-.694-14.535 0-1.567-1.273-2.84-2.84-2.84s-2.84 1.273-2.84 2.84z" transform="translate(1100 37.9609)"/><path d="m797.16 603.9s-.377 6.179-.694 14.535c-.169 4.439-.38 9.483-.41 14.534-.024 3.976.069 7.951.187 11.628.313 9.788.836 17.442.836 17.442 0 1.612 1.309 2.922 2.921 2.922s2.921-1.31 2.921-2.922c0 0 .523-7.654.836-17.442.118-3.677.211-7.652.187-11.628-.03-5.051-.241-10.095-.41-14.534-.317-8.356-.694-14.535-.694-14.535 0-1.567-1.273-2.84-2.84-2.84s-2.84 1.273-2.84 2.84z" transform="translate(-100 34.1382)"/><path d="m797.16 603.9s-.377 16.405-.694 38.518c-.169 11.764-.38 25.14-.41 38.518-.024 10.535.069 21.069.187 30.815.313 25.897.836 46.222.836 46.222 0 1.612 1.309 2.921 2.921 2.921s2.921-1.309 2.921-2.921c0 0 .523-20.325.836-46.222.118-9.746.211-20.28.187-30.815-.03-13.378-.241-26.754-.41-38.518-.317-22.113-.694-38.518-.694-38.518 0-1.567-1.273-2.84-2.84-2.84s-2.84 1.273-2.84 2.84z" transform="translate(1200 42.0274)"/><path d="m797.16 603.9s-.377 16.405-.694 38.518c-.169 11.764-.38 25.14-.41 38.518-.024 10.535.069 21.069.187 30.815.313 25.897.836 46.222.836 46.222 0 1.612 1.309 2.921 2.921 2.921s2.921-1.309 2.921-2.921c0 0 .523-20.325.836-46.222.118-9.746.211-20.28.187-30.815-.03-13.378-.241-26.754-.41-38.518-.317-22.113-.694-38.518-.694-38.518 0-1.567-1.273-2.84-2.84-2.84s-2.84 1.273-2.84 2.84z" transform="translate(-200 42.0274)"/><path d="m797.16 603.9s-.377 26.226-.694 61.569c-.169 18.803-.38 40.185-.41 61.569-.024 16.838.069 33.676.187 49.255.313 41.389.836 73.883.836 73.883 0 1.612 1.309 2.921 2.921 2.921s2.921-1.309 2.921-2.921c0 0 .523-32.494.836-73.883.118-15.579.211-32.417.187-49.255-.03-21.384-.241-42.766-.41-61.569-.317-35.343-.694-61.569-.694-61.569 0-1.567-1.273-2.84-2.84-2.84s-2.84 1.273-2.84 2.84z" transform="translate(1300 49.8242)"/><path d="m797.16 603.9s-.377 26.226-.694 61.569c-.169 18.803-.38 40.185-.41 61.569-.024 16.838.069 33.676.187 49.255.313 41.389.836 73.883.836 73.883 0 1.612 1.309 2.921 2.921 2.921s2.921-1.309 2.921-2.921c0 0 .523-32.494.836-73.883.118-15.579.211-32.417.187-49.255-.03-21.384-.241-42.766-.41-61.569-.317-35.343-.694-61.569-.694-61.569 0-1.567-1.273-2.84-2.84-2.84s-2.84 1.273-2.84 2.84z" transform="translate(-300 49.8242)"/><path d="m797.603 599.393s-.213 7.344-.384 17.247c-.091 5.267-.204 11.256-.213 17.247-.007 4.717.06 9.434.129 13.798.181 11.597.453 20.696.453 20.696v2.489h4.824v-2.489s.272-9.099.453-20.696c.069-4.364.136-9.081.129-13.798-.009-5.991-.122-11.98-.213-17.247-.171-9.903-.384-17.247-.384-17.247v-2.473h-4.794z" transform="matrix(1 0 0 .96929 1500 87.5419)"/><path d="m797.603 599.393s-.213 7.344-.384 17.247c-.091 5.267-.204 11.256-.213 17.247-.007 4.717.06 9.434.129 13.798.181 11.597.453 20.696.453 20.696v2.409h4.824v-2.409s.272-9.099.453-20.696c.069-4.364.136-9.081.129-13.798-.009-5.991-.122-11.98-.213-17.247-.171-9.903-.384-17.247-.384-17.247v-2.393h-4.794z" transform="matrix(1 0 0 1.00163 -500 69.6094)"/><path d="m797.16 611.962s-.377 16.598-.694 38.972c-.169 11.902-.38 25.435-.41 38.971-.024 10.658.069 21.316.187 31.177.313 26.202.836 46.766.836 46.766 0 1.612 1.309 2.921 2.921 2.921s2.921-1.309 2.921-2.921c0 0 .523-20.564.836-46.766.118-9.861.211-20.519.187-31.177-.03-13.536-.241-27.069-.41-38.971-.317-22.374-.694-38.972-.694-38.972 0-1.567-1.273-2.839-2.84-2.839s-2.84 1.272-2.84 2.839z" transform="translate(1400 49.8242)"/><path d="m797.16 611.962s-.377 16.598-.694 38.972c-.169 11.902-.38 25.435-.41 38.971-.024 10.658.069 21.316.187 31.177.313 26.202.836 46.766.836 46.766 0 1.612 1.309 2.921 2.921 2.921s2.921-1.309 2.921-2.921c0 0 .523-20.564.836-46.766.118-9.861.211-20.519.187-31.177-.03-13.536-.241-27.069-.41-38.971-.317-22.374-.694-38.972-.694-38.972 0-1.567-1.273-2.839-2.84-2.839s-2.84 1.272-2.84 2.839z" transform="translate(-400 50.2357)"/><path d="m797.16 525.531s-.377 16.167-.694 37.961c-.169 11.594-.38 24.776-.41 37.961-.024 10.382.069 20.764.187 30.369.313 25.523.836 45.553.836 45.553 0 1.612 1.309 2.921 2.921 2.921s2.921-1.309 2.921-2.921c0 0 .523-20.03.836-45.553.118-9.605.211-19.987.187-30.369-.03-13.185-.241-26.367-.41-37.961-.317-21.794-.694-37.961-.694-37.961 0-1.567-1.273-2.84-2.84-2.84s-2.84 1.273-2.84 2.84z" transform="translate(100 -2.70032)"/><path d="m797.16 525.531s-.377 16.167-.694 37.961c-.169 11.594-.38 24.776-.41 37.961-.024 10.382.069 20.764.187 30.369.313 25.523.836 45.553.836 45.553 0 1.612 1.309 2.921 2.921 2.921s2.921-1.309 2.921-2.921c0 0 .523-20.03.836-45.553.118-9.605.211-19.987.187-30.369-.03-13.185-.241-26.367-.41-37.961-.317-21.794-.694-37.961-.694-37.961 0-1.567-1.273-2.84-2.84-2.84s-2.84 1.273-2.84 2.84z" transform="translate(900 2.44672)"/><path d="m797.16 525.531s-.377 22.483-.694 52.781c-.169 16.12-.38 34.45-.41 52.782-.024 14.435.069 28.87.187 42.225.313 35.483.836 63.337.836 63.337 0 1.613 1.309 2.922 2.921 2.922s2.921-1.309 2.921-2.922c0 0 .523-27.854.836-63.337.118-13.355.211-27.79.187-42.225-.03-18.332-.241-36.662-.41-52.782-.317-30.298-.694-52.781-.694-52.781 0-1.567-1.273-2.84-2.84-2.84s-2.84 1.273-2.84 2.84z" transform="translate(200 -61.9816)"/><path d="m797.16 525.531s-.377 22.483-.694 52.781c-.169 16.12-.38 34.45-.41 52.782-.024 14.435.069 28.87.187 42.225.313 35.483.836 63.337.836 63.337 0 1.613 1.309 2.922 2.921 2.922s2.921-1.309 2.921-2.922c0 0 .523-27.854.836-63.337.118-13.355.211-27.79.187-42.225-.03-18.332-.241-36.662-.41-52.782-.317-30.298-.694-52.781-.694-52.781 0-1.567-1.273-2.84-2.84-2.84s-2.84 1.273-2.84 2.84z" transform="translate(800 -61.9816)"/><path d="m797.16 525.531s-.377 27.412-.694 64.352c-.169 19.653-.38 42.001-.41 64.351-.024 17.6.069 35.199.187 51.481.313 43.26.836 77.223.836 77.223 0 1.612 1.309 2.921 2.921 2.921s2.921-1.309 2.921-2.922c0 0 .523-33.962.836-77.222.118-16.282.211-33.881.187-51.481-.03-22.35-.241-44.698-.41-64.351-.317-36.94-.694-64.352-.694-64.352 0-1.567-1.273-2.84-2.84-2.84s-2.84 1.273-2.84 2.84z" transform="translate(300 -108.263)"/><path d="m797.16 525.531s-.377 27.412-.694 64.352c-.169 19.653-.38 42.001-.41 64.351-.024 17.6.069 35.199.187 51.481.313 43.26.836 77.223.836 77.223 0 1.612 1.309 2.921 2.921 2.921s2.921-1.309 2.921-2.921c0 0 .523-33.963.836-77.223.118-16.282.211-33.881.187-51.481-.03-22.35-.241-44.698-.41-64.351-.317-36.94-.694-64.352-.694-64.352 0-1.567-1.273-2.84-2.84-2.84s-2.84 1.273-2.84 2.84z" transform="translate(700 -108.263)"/><path d="m797.16 525.531s-.377 31.246-.694 73.349c-.169 22.401-.38 47.874-.41 73.348-.024 20.06.069 40.119.187 58.678.313 49.307.836 88.019.836 88.019 0 1.612 1.309 2.921 2.921 2.921s2.921-1.309 2.921-2.921c0 0 .523-38.712.836-88.019.118-18.559.211-38.618.187-58.678-.03-25.474-.241-50.947-.41-73.348-.317-42.103-.694-73.349-.694-73.349 0-1.567-1.273-2.84-2.84-2.84s-2.84 1.273-2.84 2.84z" transform="translate(400 -144.25)"/><path d="m797.16 525.531s-.377 31.246-.694 73.349c-.169 22.401-.38 47.874-.41 73.348-.024 20.06.069 40.119.187 58.678.313 49.307.836 88.019.836 88.019 0 1.612 1.309 2.921 2.921 2.921s2.921-1.309 2.921-2.921c0 0 .523-38.712.836-88.019.118-18.559.211-38.618.187-58.678-.03-25.474-.241-50.947-.41-73.348-.317-42.103-.694-73.349-.694-73.349 0-1.567-1.273-2.84-2.84-2.84s-2.84 1.273-2.84 2.84z" transform="translate(600 -144.25)"/><path d="m797.16 525.531s-.377 31.794-.694 74.635c-.169 22.794-.38 48.714-.41 74.635-.024 20.412.069 40.824.187 59.708.313 50.172.836 89.563.836 89.563 0 1.612 1.309 2.921 2.921 2.921s2.921-1.309 2.921-2.921c0 0 .523-39.391.836-89.563.118-18.884.211-39.296.187-59.708-.03-25.921-.241-51.841-.41-74.635-.317-42.841-.694-74.635-.694-74.635 0-1.567-1.273-2.84-2.84-2.84s-2.84 1.273-2.84 2.84z" transform="translate(500 -149.397)"/></g></svg>