<?xml version="1.0" encoding="UTF-8" standalone="no"?>
<!DOCTYPE svg PUBLIC "-//W3C//DTD SVG 1.1//EN" "http://www.w3.org/Graphics/SVG/1.1/DTD/svg11.dtd">
<svg width="100%" height="100%" viewBox="0 0 2261 589" version="1.1" xmlns="http://www.w3.org/2000/svg" xmlns:xlink="http://www.w3.org/1999/xlink" xml:space="preserve" xmlns:serif="http://www.serif.com/" style="fill-rule:evenodd;clip-rule:evenodd;stroke-linejoin:round;stroke-miterlimit:2;">
    <g transform="matrix(1,0,0,1,-169.817,-343.833)">
        <g transform="matrix(1,0,0,1,0,2.05086)">
            <path d="M199.989,700.467C231.712,701.802 266.106,718.293 299.955,741.362C358.615,781.34 415.512,841.048 453.954,876.223C474.926,895.413 491.582,906.876 500.172,906.793C506.773,906.728 524.299,892.16 549.222,865.93C619.598,791.862 763.563,626.953 940.949,511.512C1050.61,440.149 1173.02,387.225 1299.78,389.661C1421.5,390.494 1543.52,446.408 1654.7,519.499C1830.26,634.91 1978.54,794.702 2050.43,866.793C2075.98,892.407 2093.64,906.67 2099.68,906.847C2108.72,907.112 2125.32,895.473 2145.98,875.864C2183.84,839.935 2239.57,778.858 2298.84,738.933C2332.29,716.398 2366.84,700.61 2400,700C2366.55,699.286 2331.06,713.811 2296.46,735.251C2235.43,773.068 2177.28,832.411 2137.97,867.111C2120.42,882.6 2107.74,893.636 2100.32,893.153C2099.01,893.067 2097.32,891.075 2094.41,888.622C2086.83,882.218 2075.89,870.854 2061.81,855.804C1991.54,780.665 1846.99,613.94 1671.94,493.83C1556.68,414.741 1428.08,356.648 1300.22,354.339C1166.91,353.581 1038.08,409.173 924.336,486.546C747.351,606.939 606.825,778.496 537.873,855.459C524.096,870.837 513.32,882.397 505.726,888.826C502.913,891.208 501.222,893.15 499.828,893.207C492.708,893.499 479.809,882.583 461.897,867.249C422.147,833.222 362.881,775.378 302.603,737.327C267.54,715.193 232.151,699.748 200.011,699.533C199.754,699.527 199.54,699.731 199.533,699.989C199.527,700.246 199.731,700.46 199.989,700.467Z"/>
        </g>
        <g transform="matrix(1,0,0,1,0,-25.0032)">
            <path d="M200.036,700.354C200.036,700.354 423.691,681.946 749.837,671.44C835.238,668.689 927.645,666.441 1024.92,664.985C1113.16,663.665 1205.38,662.786 1299.98,663.443C1374.99,663.276 1448.62,664.16 1520.02,665.092C1637.33,666.625 1748.6,669.177 1850.12,672.41C2175.26,682.764 2400,700 2400,700C2400,700 2175.91,673.569 1850.94,654.28C1749.39,648.251 1638,642.92 1520.54,639.693C1448.99,637.727 1375.19,636.876 1300.02,636.529C1205.19,636.963 1112.77,638.44 1024.37,641.252C926.966,644.35 834.475,648.801 749.036,653.817C423.033,672.957 199.964,699.646 199.964,699.646C199.769,699.666 199.626,699.84 199.646,700.036C199.666,700.231 199.84,700.374 200.036,700.354Z"/>
        </g>
        <g transform="matrix(1,0,0,1,0,0.00739747)">
            <path d="M200.012,700.24C200.012,700.24 423.691,691.596 749.989,687.105C835.361,685.931 927.748,685.012 1025,684.457C1113.21,683.954 1205.41,683.605 1299.99,684.087C1374.98,684.002 1448.59,684.48 1519.98,684.88C1637.26,685.535 1748.51,686.581 1849.99,687.95C2175.26,692.339 2400,700 2400,700C2400,700 2175.48,686.117 1850.27,675.684C1748.78,672.428 1637.49,669.506 1520.16,667.706C1448.73,666.61 1375.06,666.155 1300.01,665.892C1205.35,666.149 1113.08,666.9 1024.82,668.409C927.522,670.073 835.105,672.479 749.718,675.183C423.466,685.514 199.988,699.76 199.988,699.76C199.855,699.767 199.753,699.88 199.76,700.012C199.767,700.145 199.88,700.247 200.012,700.24Z"/>
        </g>
        <path d="M797.16,600C797.16,600 796.783,608.231 796.466,619.344C796.297,625.252 796.086,631.967 796.056,638.688C796.032,643.978 796.125,649.269 796.243,654.163C796.556,667.178 797.079,677.375 797.079,677.375C797.079,678.987 798.388,680.296 800,680.296C801.612,680.296 802.921,678.987 802.921,677.375C802.921,677.375 803.444,667.178 803.757,654.163C803.875,649.269 803.968,643.978 803.944,638.688C803.914,631.967 803.703,625.252 803.534,619.344C803.217,608.231 802.84,600 802.84,600C802.84,598.433 801.567,597.16 800,597.16C798.433,597.16 797.16,598.433 797.16,600Z"/>
        <g transform="matrix(1,0,0,1,1000,0)">
            <path d="M797.16,603.9C797.16,603.9 796.783,611.976 796.466,622.88C796.297,628.677 796.086,635.266 796.056,641.861C796.032,647.052 796.125,652.243 796.243,657.045C796.556,669.817 797.079,679.822 797.079,679.822C797.079,681.434 798.388,682.743 800,682.743C801.612,682.743 802.921,681.434 802.921,679.822C802.921,679.822 803.444,669.817 803.757,657.045C803.875,652.243 803.968,647.052 803.944,641.861C803.914,635.266 803.703,628.677 803.534,622.88C803.217,611.976 802.84,603.9 802.84,603.9C802.84,602.333 801.567,601.06 800,601.06C798.433,601.06 797.16,602.333 797.16,603.9Z"/>
        </g>
        <g transform="matrix(1,0,0,1,1100,37.9609)">
            <path d="M797.16,603.9C797.16,603.9 796.783,610.079 796.466,618.435C796.297,622.874 796.086,627.918 796.056,632.969C796.032,636.945 796.125,640.92 796.243,644.597C796.556,654.385 797.079,662.039 797.079,662.039C797.079,663.651 798.388,664.961 800,664.961C801.612,664.961 802.921,663.651 802.921,662.039C802.921,662.039 803.444,654.385 803.757,644.597C803.875,640.92 803.968,636.945 803.944,632.969C803.914,627.918 803.703,622.874 803.534,618.435C803.217,610.079 802.84,603.9 802.84,603.9C802.84,602.333 801.567,601.06 800,601.06C798.433,601.06 797.16,602.333 797.16,603.9Z"/>
        </g>
        <g transform="matrix(1,0,0,1,-100,34.1382)">
            <path d="M797.16,603.9C797.16,603.9 796.783,610.079 796.466,618.435C796.297,622.874 796.086,627.918 796.056,632.969C796.032,636.945 796.125,640.92 796.243,644.597C796.556,654.385 797.079,662.039 797.079,662.039C797.079,663.651 798.388,664.961 800,664.961C801.612,664.961 802.921,663.651 802.921,662.039C802.921,662.039 803.444,654.385 803.757,644.597C803.875,640.92 803.968,636.945 803.944,632.969C803.914,627.918 803.703,622.874 803.534,618.435C803.217,610.079 802.84,603.9 802.84,603.9C802.84,602.333 801.567,601.06 800,601.06C798.433,601.06 797.16,602.333 797.16,603.9Z"/>
        </g>
        <g transform="matrix(1,0,0,1,1200,42.0274)">
            <path d="M797.16,603.9C797.16,603.9 796.783,620.305 796.466,642.418C796.297,654.182 796.086,667.558 796.056,680.936C796.032,691.471 796.125,702.005 796.243,711.751C796.556,737.648 797.079,757.973 797.079,757.973C797.079,759.585 798.388,760.894 800,760.894C801.612,760.894 802.921,759.585 802.921,757.973C802.921,757.973 803.444,737.648 803.757,711.751C803.875,702.005 803.968,691.471 803.944,680.936C803.914,667.558 803.703,654.182 803.534,642.418C803.217,620.305 802.84,603.9 802.84,603.9C802.84,602.333 801.567,601.06 800,601.06C798.433,601.06 797.16,602.333 797.16,603.9Z"/>
        </g>
        <g transform="matrix(1,0,0,1,-200,42.0274)">
            <path d="M797.16,603.9C797.16,603.9 796.783,620.305 796.466,642.418C796.297,654.182 796.086,667.558 796.056,680.936C796.032,691.471 796.125,702.005 796.243,711.751C796.556,737.648 797.079,757.973 797.079,757.973C797.079,759.585 798.388,760.894 800,760.894C801.612,760.894 802.921,759.585 802.921,757.973C802.921,757.973 803.444,737.648 803.757,711.751C803.875,702.005 803.968,691.471 803.944,680.936C803.914,667.558 803.703,654.182 803.534,642.418C803.217,620.305 802.84,603.9 802.84,603.9C802.84,602.333 801.567,601.06 800,601.06C798.433,601.06 797.16,602.333 797.16,603.9Z"/>
        </g>
        <g transform="matrix(1,0,0,1,1300,49.8242)">
            <path d="M797.16,603.9C797.16,603.9 796.783,630.126 796.466,665.469C796.297,684.272 796.086,705.654 796.056,727.038C796.032,743.876 796.125,760.714 796.243,776.293C796.556,817.682 797.079,850.176 797.079,850.176C797.079,851.788 798.388,853.097 800,853.097C801.612,853.097 802.921,851.788 802.921,850.176C802.921,850.176 803.444,817.682 803.757,776.293C803.875,760.714 803.968,743.876 803.944,727.038C803.914,705.654 803.703,684.272 803.534,665.469C803.217,630.126 802.84,603.9 802.84,603.9C802.84,602.333 801.567,601.06 800,601.06C798.433,601.06 797.16,602.333 797.16,603.9Z"/>
        </g>
        <g transform="matrix(1,0,0,1,-300,49.8242)">
            <path d="M797.16,603.9C797.16,603.9 796.783,630.126 796.466,665.469C796.297,684.272 796.086,705.654 796.056,727.038C796.032,743.876 796.125,760.714 796.243,776.293C796.556,817.682 797.079,850.176 797.079,850.176C797.079,851.788 798.388,853.097 800,853.097C801.612,853.097 802.921,851.788 802.921,850.176C802.921,850.176 803.444,817.682 803.757,776.293C803.875,760.714 803.968,743.876 803.944,727.038C803.914,705.654 803.703,684.272 803.534,665.469C803.217,630.126 802.84,603.9 802.84,603.9C802.84,602.333 801.567,601.06 800,601.06C798.433,601.06 797.16,602.333 797.16,603.9Z"/>
        </g>
        <g transform="matrix(1,0,0,0.96929,1500,87.5419)">
            <path d="M797.603,599.393C797.603,599.393 797.39,606.737 797.219,616.64C797.128,621.907 797.015,627.896 797.006,633.887C796.999,638.604 797.066,643.321 797.135,647.685C797.316,659.282 797.588,668.381 797.588,668.381L797.588,670.87L802.412,670.87L802.412,668.381C802.412,668.381 802.684,659.282 802.865,647.685C802.934,643.321 803.001,638.604 802.994,633.887C802.985,627.896 802.872,621.907 802.781,616.64C802.61,606.737 802.397,599.393 802.397,599.393L802.397,596.92L797.603,596.92L797.603,599.393Z"/>
        </g>
        <g transform="matrix(1,0,0,1.00163,-500,69.6094)">
            <path d="M797.603,599.393C797.603,599.393 797.39,606.737 797.219,616.64C797.128,621.907 797.015,627.896 797.006,633.887C796.999,638.604 797.066,643.321 797.135,647.685C797.316,659.282 797.588,668.381 797.588,668.381L797.588,670.79L802.412,670.79L802.412,668.381C802.412,668.381 802.684,659.282 802.865,647.685C802.934,643.321 803.001,638.604 802.994,633.887C802.985,627.896 802.872,621.907 802.781,616.64C802.61,606.737 802.397,599.393 802.397,599.393L802.397,597L797.603,597L797.603,599.393Z"/>
        </g>
        <g transform="matrix(1,0,0,1,1400,49.8242)">
            <path d="M797.16,611.962C797.16,611.962 796.783,628.56 796.466,650.934C796.297,662.836 796.086,676.369 796.056,689.905C796.032,700.563 796.125,711.221 796.243,721.082C796.556,747.284 797.079,767.848 797.079,767.848C797.079,769.46 798.388,770.769 800,770.769C801.612,770.769 802.921,769.46 802.921,767.848C802.921,767.848 803.444,747.284 803.757,721.082C803.875,711.221 803.968,700.563 803.944,689.905C803.914,676.369 803.703,662.836 803.534,650.934C803.217,628.56 802.84,611.962 802.84,611.962C802.84,610.395 801.567,609.123 800,609.123C798.433,609.123 797.16,610.395 797.16,611.962Z"/>
        </g>
        <g transform="matrix(1,0,0,1,-400,50.2357)">
            <path d="M797.16,611.962C797.16,611.962 796.783,628.56 796.466,650.934C796.297,662.836 796.086,676.369 796.056,689.905C796.032,700.563 796.125,711.221 796.243,721.082C796.556,747.284 797.079,767.848 797.079,767.848C797.079,769.46 798.388,770.769 800,770.769C801.612,770.769 802.921,769.46 802.921,767.848C802.921,767.848 803.444,747.284 803.757,721.082C803.875,711.221 803.968,700.563 803.944,689.905C803.914,676.369 803.703,662.836 803.534,650.934C803.217,628.56 802.84,611.962 802.84,611.962C802.84,610.395 801.567,609.123 800,609.123C798.433,609.123 797.16,610.395 797.16,611.962Z"/>
        </g>
        <g transform="matrix(1,0,0,1,100,-2.70032)">
            <path d="M797.16,525.531C797.16,525.531 796.783,541.698 796.466,563.492C796.297,575.086 796.086,588.268 796.056,601.453C796.032,611.835 796.125,622.217 796.243,631.822C796.556,657.345 797.079,677.375 797.079,677.375C797.079,678.987 798.388,680.296 800,680.296C801.612,680.296 802.921,678.987 802.921,677.375C802.921,677.375 803.444,657.345 803.757,631.822C803.875,622.217 803.968,611.835 803.944,601.453C803.914,588.268 803.703,575.086 803.534,563.492C803.217,541.698 802.84,525.531 802.84,525.531C802.84,523.964 801.567,522.691 800,522.691C798.433,522.691 797.16,523.964 797.16,525.531Z"/>
        </g>
        <g transform="matrix(1,0,0,1,900,2.44672)">
            <path d="M797.16,525.531C797.16,525.531 796.783,541.698 796.466,563.492C796.297,575.086 796.086,588.268 796.056,601.453C796.032,611.835 796.125,622.217 796.243,631.822C796.556,657.345 797.079,677.375 797.079,677.375C797.079,678.987 798.388,680.296 800,680.296C801.612,680.296 802.921,678.987 802.921,677.375C802.921,677.375 803.444,657.345 803.757,631.822C803.875,622.217 803.968,611.835 803.944,601.453C803.914,588.268 803.703,575.086 803.534,563.492C803.217,541.698 802.84,525.531 802.84,525.531C802.84,523.964 801.567,522.691 800,522.691C798.433,522.691 797.16,523.964 797.16,525.531Z"/>
        </g>
        <g transform="matrix(1,0,0,1,200,-61.9816)">
            <path d="M797.16,525.531C797.16,525.531 796.783,548.014 796.466,578.312C796.297,594.432 796.086,612.762 796.056,631.094C796.032,645.529 796.125,659.964 796.243,673.319C796.556,708.802 797.079,736.656 797.079,736.656C797.079,738.269 798.388,739.578 800,739.578C801.612,739.578 802.921,738.269 802.921,736.656C802.921,736.656 803.444,708.802 803.757,673.319C803.875,659.964 803.968,645.529 803.944,631.094C803.914,612.762 803.703,594.432 803.534,578.312C803.217,548.014 802.84,525.531 802.84,525.531C802.84,523.964 801.567,522.691 800,522.691C798.433,522.691 797.16,523.964 797.16,525.531Z"/>
        </g>
        <g transform="matrix(1,0,0,1,800,-61.9816)">
            <path d="M797.16,525.531C797.16,525.531 796.783,548.014 796.466,578.312C796.297,594.432 796.086,612.762 796.056,631.094C796.032,645.529 796.125,659.964 796.243,673.319C796.556,708.802 797.079,736.656 797.079,736.656C797.079,738.269 798.388,739.578 800,739.578C801.612,739.578 802.921,738.269 802.921,736.656C802.921,736.656 803.444,708.802 803.757,673.319C803.875,659.964 803.968,645.529 803.944,631.094C803.914,612.762 803.703,594.432 803.534,578.312C803.217,548.014 802.84,525.531 802.84,525.531C802.84,523.964 801.567,522.691 800,522.691C798.433,522.691 797.16,523.964 797.16,525.531Z"/>
        </g>
        <g transform="matrix(1,0,0,1,300,-108.263)">
            <path d="M797.16,525.531C797.16,525.531 796.783,552.943 796.466,589.883C796.297,609.536 796.086,631.884 796.056,654.234C796.032,671.834 796.125,689.433 796.243,705.715C796.556,748.975 797.079,782.938 797.079,782.938C797.079,784.55 798.388,785.859 800,785.859C801.612,785.859 802.921,784.55 802.921,782.937C802.921,782.937 803.444,748.975 803.757,705.715C803.875,689.433 803.968,671.834 803.944,654.234C803.914,631.884 803.703,609.536 803.534,589.883C803.217,552.943 802.84,525.531 802.84,525.531C802.84,523.964 801.567,522.691 800,522.691C798.433,522.691 797.16,523.964 797.16,525.531Z"/>
        </g>
        <g transform="matrix(1,0,0,1,700,-108.263)">
            <path d="M797.16,525.531C797.16,525.531 796.783,552.943 796.466,589.883C796.297,609.536 796.086,631.884 796.056,654.234C796.032,671.834 796.125,689.433 796.243,705.715C796.556,748.975 797.079,782.938 797.079,782.938C797.079,784.55 798.388,785.859 800,785.859C801.612,785.859 802.921,784.55 802.921,782.938C802.921,782.938 803.444,748.975 803.757,705.715C803.875,689.433 803.968,671.834 803.944,654.234C803.914,631.884 803.703,609.536 803.534,589.883C803.217,552.943 802.84,525.531 802.84,525.531C802.84,523.964 801.567,522.691 800,522.691C798.433,522.691 797.16,523.964 797.16,525.531Z"/>
        </g>
        <g transform="matrix(1,0,0,1,400,-144.25)">
            <path d="M797.16,525.531C797.16,525.531 796.783,556.777 796.466,598.88C796.297,621.281 796.086,646.754 796.056,672.228C796.032,692.288 796.125,712.347 796.243,730.906C796.556,780.213 797.079,818.925 797.079,818.925C797.079,820.537 798.388,821.846 800,821.846C801.612,821.846 802.921,820.537 802.921,818.925C802.921,818.925 803.444,780.213 803.757,730.906C803.875,712.347 803.968,692.288 803.944,672.228C803.914,646.754 803.703,621.281 803.534,598.88C803.217,556.777 802.84,525.531 802.84,525.531C802.84,523.964 801.567,522.691 800,522.691C798.433,522.691 797.16,523.964 797.16,525.531Z"/>
        </g>
        <g transform="matrix(1,0,0,1,600,-144.25)">
            <path d="M797.16,525.531C797.16,525.531 796.783,556.777 796.466,598.88C796.297,621.281 796.086,646.754 796.056,672.228C796.032,692.288 796.125,712.347 796.243,730.906C796.556,780.213 797.079,818.925 797.079,818.925C797.079,820.537 798.388,821.846 800,821.846C801.612,821.846 802.921,820.537 802.921,818.925C802.921,818.925 803.444,780.213 803.757,730.906C803.875,712.347 803.968,692.288 803.944,672.228C803.914,646.754 803.703,621.281 803.534,598.88C803.217,556.777 802.84,525.531 802.84,525.531C802.84,523.964 801.567,522.691 800,522.691C798.433,522.691 797.16,523.964 797.16,525.531Z"/>
        </g>
        <g transform="matrix(1,0,0,1,500,-149.397)">
            <path d="M797.16,525.531C797.16,525.531 796.783,557.325 796.466,600.166C796.297,622.96 796.086,648.88 796.056,674.801C796.032,695.213 796.125,715.625 796.243,734.509C796.556,784.681 797.079,824.072 797.079,824.072C797.079,825.684 798.388,826.993 800,826.993C801.612,826.993 802.921,825.684 802.921,824.072C802.921,824.072 803.444,784.681 803.757,734.509C803.875,715.625 803.968,695.213 803.944,674.801C803.914,648.88 803.703,622.96 803.534,600.166C803.217,557.325 802.84,525.531 802.84,525.531C802.84,523.964 801.567,522.691 800,522.691C798.433,522.691 797.16,523.964 797.16,525.531Z"/>
        </g>
    </g>
</svg>
