<?xml version="1.0" encoding="UTF-8" standalone="no"?>
<!DOCTYPE svg PUBLIC "-//W3C//DTD SVG 1.1//EN" "http://www.w3.org/Graphics/SVG/1.1/DTD/svg11.dtd">
<svg width="100%" height="100%" viewBox="0 0 1161 589" version="1.1" xmlns="http://www.w3.org/2000/svg" xmlns:xlink="http://www.w3.org/1999/xlink" xml:space="preserve" xmlns:serif="http://www.serif.com/" style="fill-rule:evenodd;clip-rule:evenodd;stroke-linejoin:round;stroke-miterlimit:2;">
    <g transform="matrix(1,0,0,1,-785.817,-438.489)">
        <g transform="matrix(0.5,0,0,1,716,94.6562)">
            <g transform="matrix(1,0,0,1,0,2.05086)">
                <path d="M497.764,889.378L498.473,888.773C506.225,881.764 516.833,869.948 530.321,854.514C602.418,772.016 750.446,588.178 938.423,469.258C1048.29,399.756 1173.77,353.32 1300.88,354.426C1358.07,355.119 1415.78,365.761 1472.07,384.586C1534.98,405.623 1596.8,436.852 1655.09,474.032C1841.89,593.183 1996.62,773.2 2070.91,854.317C2084.57,869.228 2095.18,880.703 2102.82,887.586C2105.19,886.126 2107.73,884.445 2109.86,882.821C2145.9,855.393 2208.68,789.016 2275.94,743.906C2317.18,716.246 2360.54,696.662 2400.02,697.2C2403.11,697.204 2405.61,698.463 2405.6,700.008C2405.59,701.554 2403.08,702.805 2399.98,702.8C2363.59,703.19 2326.79,722.968 2291.18,749.318C2228.27,795.873 2171.39,863.428 2137.85,891.58C2130.03,898.142 2122.91,902.755 2117.38,905.161C2110.48,908.162 2103.65,908.799 2098.37,908.608C2094.51,908.468 2086.6,906.94 2078.96,901.695C2070.25,895.722 2055.5,882.057 2035.98,862.72C1956.8,784.298 1792.62,609.991 1603.03,494.943C1557.83,467.514 1511.34,443.497 1464.11,425.145C1409.59,403.961 1354.63,390.264 1299.12,389.574C1189.71,387.801 1085.77,430.776 988.236,489.446C797.524,604.165 638.551,781.889 561.549,861.689C542.591,881.336 528.227,895.212 519.472,901.192C512.246,906.128 504.726,907.539 500.772,907.599C493.485,907.709 478.357,902.782 464.056,891.075C429.993,863.192 371.159,796.684 308.187,750.176C271.879,723.359 234.709,703.118 199.818,701.865C197.76,701.815 196.17,700.938 196.27,699.909C196.371,698.88 198.124,698.085 200.182,698.135C237.117,698.611 279.148,718.545 320.029,745.968C387.177,791.012 452.021,856.125 488.451,883.261C491.461,885.503 494.889,887.671 497.764,889.378Z"/>
            </g>
            <g transform="matrix(1,0,0,1,0,-25.0032)">
                <path d="M200.807,702C200.807,702 423.973,682.231 749.129,670.205C834.609,667.043 927.102,664.403 1024.48,662.64C1112.84,661.041 1205.2,660.03 1299.95,660.481C1375.07,660.415 1448.79,661.314 1520.29,662.439C1637.72,664.286 1749.1,667.324 1850.71,671.057C2174.98,682.971 2399.33,701.729 2399.33,701.729C2401.24,701.915 2403.09,701.291 2403.46,700.336C2403.83,699.382 2402.58,698.456 2400.67,698.271C2400.67,698.271 2177.71,673.513 1853.5,655.776C1751.67,650.206 1639.89,645.323 1521.92,642.38C1449.96,640.585 1375.7,639.738 1300.05,639.491C1204.62,639.718 1111.6,641.081 1022.7,643.646C924.887,646.468 832.072,650.561 746.394,655.205C421.158,672.835 199.193,698 199.193,698C196.985,698.223 195.555,699.3 196.001,700.404C196.447,701.507 198.6,702.222 200.807,702Z"/>
            </g>
            <g transform="matrix(1,0,0,1,0,0.00739747)">
                <path d="M200.375,701.834C200.375,701.834 423.969,692.669 750.01,687.639C835.386,686.322 927.762,685.274 1025.01,684.618C1113.21,684.023 1205.39,683.639 1299.96,684.053C1374.94,684.033 1448.53,684.541 1519.91,685.036C1637.17,685.849 1748.41,687.109 1849.89,688.701C2174.92,693.801 2399.59,702.154 2399.59,702.154C2401.97,702.268 2404.08,701.395 2404.31,700.207C2404.54,699.018 2402.79,697.96 2400.41,697.846C2400.41,697.846 2176.24,684.677 1851.14,674.951C1749.56,671.912 1638.14,669.201 1520.64,667.554C1449.07,666.55 1375.25,666.125 1300.04,665.926C1205.17,666.116 1112.7,666.832 1024.27,668.254C926.822,669.822 834.3,672.101 748.831,674.669C422.721,684.466 199.625,698.166 199.625,698.166C197.6,698.27 196.125,699.176 196.332,700.188C196.54,701.2 198.351,701.937 200.375,701.834Z"/>
            </g>
            <path d="M794.32,600C794.32,600 793.566,608.231 792.931,619.344C792.594,625.252 792.172,631.967 792.111,638.688C792.063,643.978 792.251,649.269 792.486,654.163C793.112,667.178 794.157,677.375 794.157,677.375C794.157,678.987 796.775,680.296 800,680.296C803.225,680.296 805.843,678.987 805.843,677.375C805.843,677.375 806.888,667.178 807.514,654.163C807.749,649.269 807.937,643.978 807.889,638.688C807.828,631.967 807.406,625.252 807.069,619.344C806.434,608.231 805.68,600 805.68,600C805.68,598.433 803.135,597.16 800,597.16C796.865,597.16 794.32,598.433 794.32,600Z"/>
            <g transform="matrix(1,0,0,1,1000,0)">
                <path d="M794.32,603.9C794.32,603.9 793.566,611.976 792.931,622.88C792.594,628.677 792.172,635.266 792.111,641.861C792.063,647.052 792.251,652.243 792.486,657.045C793.112,669.817 794.157,679.822 794.157,679.822C794.157,681.434 796.775,682.743 800,682.743C803.225,682.743 805.843,681.434 805.843,679.822C805.843,679.822 806.888,669.817 807.514,657.045C807.749,652.243 807.937,647.052 807.889,641.861C807.828,635.266 807.406,628.677 807.069,622.88C806.434,611.976 805.68,603.9 805.68,603.9C805.68,602.333 803.135,601.06 800,601.06C796.865,601.06 794.32,602.333 794.32,603.9Z"/>
            </g>
            <g transform="matrix(1,0,0,1,1100,37.9609)">
                <path d="M794.32,603.9C794.32,603.9 793.566,610.079 792.931,618.435C792.594,622.874 792.172,627.918 792.111,632.969C792.063,636.945 792.251,640.92 792.486,644.597C793.112,654.385 794.157,662.039 794.157,662.039C794.157,663.651 796.775,664.961 800,664.961C803.225,664.961 805.843,663.651 805.843,662.039C805.843,662.039 806.888,654.385 807.514,644.597C807.749,640.92 807.937,636.945 807.889,632.969C807.828,627.918 807.406,622.874 807.069,618.435C806.434,610.079 805.68,603.9 805.68,603.9C805.68,602.333 803.135,601.06 800,601.06C796.865,601.06 794.32,602.333 794.32,603.9Z"/>
            </g>
            <g transform="matrix(1,0,0,1,-100,34.1382)">
                <path d="M794.32,603.9C794.32,603.9 793.566,610.079 792.931,618.435C792.594,622.874 792.172,627.918 792.111,632.969C792.063,636.945 792.251,640.92 792.486,644.597C793.112,654.385 794.157,662.039 794.157,662.039C794.157,663.651 796.775,664.961 800,664.961C803.225,664.961 805.843,663.651 805.843,662.039C805.843,662.039 806.888,654.385 807.514,644.597C807.749,640.92 807.937,636.945 807.889,632.969C807.828,627.918 807.406,622.874 807.069,618.435C806.434,610.079 805.68,603.9 805.68,603.9C805.68,602.333 803.135,601.06 800,601.06C796.865,601.06 794.32,602.333 794.32,603.9Z"/>
            </g>
            <g transform="matrix(1,0,0,1,1200,42.0274)">
                <path d="M794.32,603.9C794.32,603.9 793.565,620.305 792.931,642.418C792.594,654.182 792.172,667.558 792.111,680.936C792.063,691.471 792.251,702.005 792.486,711.751C793.112,737.648 794.157,757.973 794.157,757.973C794.157,759.585 796.775,760.894 800,760.894C803.225,760.894 805.843,759.585 805.843,757.973C805.843,757.973 806.888,737.648 807.514,711.751C807.749,702.005 807.937,691.471 807.889,680.936C807.828,667.558 807.406,654.182 807.069,642.418C806.435,620.305 805.68,603.9 805.68,603.9C805.68,602.333 803.135,601.06 800,601.06C796.865,601.06 794.32,602.333 794.32,603.9Z"/>
            </g>
            <g transform="matrix(1,0,0,1,-200,42.0274)">
                <path d="M794.32,603.9C794.32,603.9 793.565,620.305 792.931,642.418C792.594,654.182 792.172,667.558 792.111,680.936C792.063,691.471 792.251,702.005 792.486,711.751C793.112,737.648 794.157,757.973 794.157,757.973C794.157,759.585 796.775,760.894 800,760.894C803.225,760.894 805.843,759.585 805.843,757.973C805.843,757.973 806.888,737.648 807.514,711.751C807.749,702.005 807.937,691.471 807.889,680.936C807.828,667.558 807.406,654.182 807.069,642.418C806.435,620.305 805.68,603.9 805.68,603.9C805.68,602.333 803.135,601.06 800,601.06C796.865,601.06 794.32,602.333 794.32,603.9Z"/>
            </g>
            <g transform="matrix(1,0,0,1,1300,49.8242)">
                <path d="M794.32,603.9C794.32,603.9 793.565,630.126 792.931,665.469C792.594,684.272 792.172,705.654 792.111,727.038C792.063,743.876 792.251,760.714 792.486,776.293C793.112,817.682 794.157,850.176 794.157,850.176C794.157,851.788 796.775,853.097 800,853.097C803.225,853.097 805.843,851.788 805.843,850.176C805.843,850.176 806.888,817.682 807.514,776.293C807.749,760.714 807.937,743.876 807.889,727.038C807.828,705.654 807.406,684.272 807.069,665.469C806.435,630.126 805.68,603.9 805.68,603.9C805.68,602.333 803.135,601.06 800,601.06C796.865,601.06 794.32,602.333 794.32,603.9Z"/>
            </g>
            <g transform="matrix(1,0,0,1,-300,49.8242)">
                <path d="M794.32,603.9C794.32,603.9 793.565,630.126 792.931,665.469C792.594,684.272 792.172,705.654 792.111,727.038C792.063,743.876 792.251,760.714 792.486,776.293C793.112,817.682 794.157,850.176 794.157,850.176C794.157,851.788 796.775,853.097 800,853.097C803.225,853.097 805.843,851.788 805.843,850.176C805.843,850.176 806.888,817.682 807.514,776.293C807.749,760.714 807.937,743.876 807.889,727.038C807.828,705.654 807.406,684.272 807.069,665.469C806.435,630.126 805.68,603.9 805.68,603.9C805.68,602.333 803.135,601.06 800,601.06C796.865,601.06 794.32,602.333 794.32,603.9Z"/>
            </g>
            <g transform="matrix(1,0,0,0.96929,1500,87.5419)">
                <path d="M795.206,599.393C795.206,599.393 794.78,606.737 794.437,616.64C794.255,621.907 794.03,627.896 794.012,633.887C793.998,638.604 794.133,643.321 794.269,647.685C794.631,659.282 795.175,668.381 795.175,668.381L795.175,670.87L804.825,670.87L804.825,668.381C804.825,668.381 805.369,659.282 805.731,647.685C805.867,643.321 806.002,638.604 805.988,633.887C805.97,627.896 805.745,621.907 805.563,616.64C805.22,606.737 804.794,599.393 804.794,599.393L804.794,596.92L795.206,596.92L795.206,599.393Z"/>
            </g>
            <g transform="matrix(1,0,0,1.00163,-500,69.6094)">
                <path d="M795.206,599.393C795.206,599.393 794.78,606.737 794.437,616.64C794.255,621.907 794.03,627.896 794.012,633.887C793.998,638.604 794.133,643.321 794.269,647.685C794.631,659.282 795.175,668.381 795.175,668.381L795.175,670.79L804.825,670.79L804.825,668.381C804.825,668.381 805.369,659.282 805.731,647.685C805.867,643.321 806.002,638.604 805.988,633.887C805.97,627.896 805.745,621.907 805.563,616.64C805.22,606.737 804.794,599.393 804.794,599.393L804.794,597L795.206,597L795.206,599.393Z"/>
            </g>
            <g transform="matrix(1,0,0,1,1400,49.8242)">
                <path d="M794.32,611.962C794.32,611.962 793.565,628.56 792.931,650.934C792.594,662.836 792.172,676.369 792.111,689.905C792.063,700.563 792.251,711.221 792.486,721.082C793.112,747.284 794.157,767.848 794.157,767.848C794.157,769.46 796.775,770.769 800,770.769C803.225,770.769 805.843,769.46 805.843,767.848C805.843,767.848 806.888,747.284 807.514,721.082C807.749,711.221 807.937,700.563 807.889,689.905C807.828,676.369 807.406,662.836 807.069,650.934C806.435,628.56 805.68,611.962 805.68,611.962C805.68,610.395 803.135,609.123 800,609.123C796.865,609.123 794.32,610.395 794.32,611.962Z"/>
            </g>
            <g transform="matrix(1,0,0,1,-400,50.2357)">
                <path d="M794.32,611.962C794.32,611.962 793.565,628.56 792.931,650.934C792.594,662.836 792.172,676.369 792.111,689.905C792.063,700.563 792.251,711.221 792.486,721.082C793.112,747.284 794.157,767.848 794.157,767.848C794.157,769.46 796.775,770.769 800,770.769C803.225,770.769 805.843,769.46 805.843,767.848C805.843,767.848 806.888,747.284 807.514,721.082C807.749,711.221 807.937,700.563 807.889,689.905C807.828,676.369 807.406,662.836 807.069,650.934C806.435,628.56 805.68,611.962 805.68,611.962C805.68,610.395 803.135,609.123 800,609.123C796.865,609.123 794.32,610.395 794.32,611.962Z"/>
            </g>
            <g transform="matrix(1,0,0,1,100,-2.70032)">
                <path d="M794.32,525.531C794.32,525.531 793.565,541.698 792.931,563.492C792.594,575.086 792.172,588.268 792.111,601.453C792.063,611.835 792.251,622.217 792.486,631.822C793.112,657.345 794.157,677.375 794.157,677.375C794.157,678.987 796.775,680.296 800,680.296C803.225,680.296 805.843,678.987 805.843,677.375C805.843,677.375 806.888,657.345 807.514,631.822C807.749,622.217 807.937,611.835 807.889,601.453C807.828,588.268 807.406,575.086 807.069,563.492C806.435,541.698 805.68,525.531 805.68,525.531C805.68,523.964 803.135,522.691 800,522.691C796.865,522.691 794.32,523.964 794.32,525.531Z"/>
            </g>
            <g transform="matrix(1,0,0,1,900,2.44672)">
                <path d="M794.32,525.531C794.32,525.531 793.565,541.698 792.931,563.492C792.594,575.086 792.172,588.268 792.111,601.453C792.063,611.835 792.251,622.217 792.486,631.822C793.112,657.345 794.157,677.375 794.157,677.375C794.157,678.987 796.775,680.296 800,680.296C803.225,680.296 805.843,678.987 805.843,677.375C805.843,677.375 806.888,657.345 807.514,631.822C807.749,622.217 807.937,611.835 807.889,601.453C807.828,588.268 807.406,575.086 807.069,563.492C806.435,541.698 805.68,525.531 805.68,525.531C805.68,523.964 803.135,522.691 800,522.691C796.865,522.691 794.32,523.964 794.32,525.531Z"/>
            </g>
            <g transform="matrix(1,0,0,1,200,-61.9816)">
                <path d="M794.32,525.531C794.32,525.531 793.565,548.014 792.931,578.312C792.594,594.432 792.172,612.762 792.111,631.094C792.063,645.529 792.251,659.964 792.486,673.319C793.112,708.802 794.157,736.656 794.157,736.656C794.157,738.269 796.775,739.578 800,739.578C803.225,739.578 805.843,738.269 805.843,736.656C805.843,736.656 806.888,708.802 807.514,673.319C807.749,659.964 807.937,645.529 807.889,631.094C807.828,612.762 807.406,594.432 807.069,578.312C806.435,548.014 805.68,525.531 805.68,525.531C805.68,523.964 803.135,522.691 800,522.691C796.865,522.691 794.32,523.964 794.32,525.531Z"/>
            </g>
            <g transform="matrix(1,0,0,1,800,-61.9816)">
                <path d="M794.32,525.531C794.32,525.531 793.565,548.014 792.931,578.312C792.594,594.432 792.172,612.762 792.111,631.094C792.063,645.529 792.251,659.964 792.486,673.319C793.112,708.802 794.157,736.656 794.157,736.656C794.157,738.269 796.775,739.578 800,739.578C803.225,739.578 805.843,738.269 805.843,736.656C805.843,736.656 806.888,708.802 807.514,673.319C807.749,659.964 807.937,645.529 807.889,631.094C807.828,612.762 807.406,594.432 807.069,578.312C806.435,548.014 805.68,525.531 805.68,525.531C805.68,523.964 803.135,522.691 800,522.691C796.865,522.691 794.32,523.964 794.32,525.531Z"/>
            </g>
            <g transform="matrix(1,0,0,1,300,-108.263)">
                <path d="M794.32,525.531C794.32,525.531 793.565,552.943 792.931,589.883C792.594,609.536 792.172,631.884 792.111,654.234C792.063,671.834 792.251,689.433 792.486,705.715C793.112,748.975 794.157,782.937 794.157,782.937C794.157,784.55 796.775,785.859 800,785.859C803.225,785.859 805.843,784.55 805.843,782.938C805.843,782.938 806.888,748.975 807.514,705.715C807.749,689.433 807.937,671.834 807.889,654.234C807.828,631.884 807.406,609.536 807.069,589.883C806.435,552.943 805.68,525.531 805.68,525.531C805.68,523.964 803.135,522.691 800,522.691C796.865,522.691 794.32,523.964 794.32,525.531Z"/>
            </g>
            <g transform="matrix(1,0,0,1,700,-108.263)">
                <path d="M794.32,525.531C794.32,525.531 793.565,552.943 792.931,589.883C792.594,609.536 792.172,631.884 792.111,654.234C792.063,671.834 792.251,689.433 792.486,705.715C793.112,748.975 794.157,782.938 794.157,782.938C794.157,784.55 796.775,785.859 800,785.859C803.225,785.859 805.843,784.55 805.843,782.938C805.843,782.938 806.888,748.975 807.514,705.715C807.749,689.433 807.937,671.834 807.889,654.234C807.828,631.884 807.406,609.536 807.069,589.883C806.435,552.943 805.68,525.531 805.68,525.531C805.68,523.964 803.135,522.691 800,522.691C796.865,522.691 794.32,523.964 794.32,525.531Z"/>
            </g>
            <g transform="matrix(1,0,0,1,400,-144.25)">
                <path d="M794.32,525.531C794.32,525.531 793.565,556.777 792.931,598.88C792.594,621.281 792.172,646.754 792.111,672.228C792.063,692.288 792.251,712.347 792.486,730.906C793.112,780.213 794.157,818.925 794.157,818.925C794.157,820.537 796.775,821.846 800,821.846C803.225,821.846 805.843,820.537 805.843,818.925C805.843,818.925 806.888,780.213 807.514,730.906C807.749,712.347 807.937,692.288 807.889,672.228C807.828,646.754 807.406,621.281 807.069,598.88C806.435,556.777 805.68,525.531 805.68,525.531C805.68,523.964 803.135,522.691 800,522.691C796.865,522.691 794.32,523.964 794.32,525.531Z"/>
            </g>
            <g transform="matrix(1,0,0,1,600,-144.25)">
                <path d="M794.32,525.531C794.32,525.531 793.565,556.777 792.931,598.88C792.594,621.281 792.172,646.754 792.111,672.228C792.063,692.288 792.251,712.347 792.486,730.906C793.112,780.213 794.157,818.925 794.157,818.925C794.157,820.537 796.775,821.846 800,821.846C803.225,821.846 805.843,820.537 805.843,818.925C805.843,818.925 806.888,780.213 807.514,730.906C807.749,712.347 807.937,692.288 807.889,672.228C807.828,646.754 807.406,621.281 807.069,598.88C806.435,556.777 805.68,525.531 805.68,525.531C805.68,523.964 803.135,522.691 800,522.691C796.865,522.691 794.32,523.964 794.32,525.531Z"/>
            </g>
            <g transform="matrix(1,0,0,1,500,-149.397)">
                <path d="M794.32,525.531C794.32,525.531 793.565,557.325 792.931,600.166C792.594,622.96 792.172,648.88 792.111,674.801C792.063,695.213 792.251,715.625 792.486,734.509C793.112,784.681 794.157,824.072 794.157,824.072C794.157,825.684 796.775,826.993 800,826.993C803.225,826.993 805.843,825.684 805.843,824.072C805.843,824.072 806.888,784.681 807.514,734.509C807.749,715.625 807.937,695.213 807.889,674.801C807.828,648.88 807.406,622.96 807.069,600.166C806.435,557.325 805.68,525.531 805.68,525.531C805.68,523.964 803.135,522.691 800,522.691C796.865,522.691 794.32,523.964 794.32,525.531Z"/>
            </g>
        </g>
    </g>
</svg>
