<?xml version="1.0" encoding="UTF-8" standalone="no"?>
<!-- Created with Inkscape (http://www.inkscape.org/) -->

<svg
   width="289.48337mm"
   height="46.07746mm"
   viewBox="0 28 289.48337 66.07746"
   version="1.1"
   id="svg1"
   xml:space="preserve"
   xmlns="http://www.w3.org/2000/svg"
   xmlns:svg="http://www.w3.org/2000/svg"><defs
     id="defs1" /><g
     id="layer1"
     transform="translate(-5.5236567,-29.116098)"><g
       id="g2"
       transform="matrix(-0.26458333,0,0,0.26458333,73.256989,59.893184)"><path
         style="fill:#d3bc5f;fill-opacity:1;stroke-width:1.64158;stroke-dasharray:none"
         d="M 157.55001,175.85163 V 139.21246 H 128.15127 98.752545 v 36.63917 36.63919 h 29.398725 29.39874 z m -29.38542,11.31692 c 1.95259,0.16273 -1.67667,-1.29004 -3.60988,-1.23616 l -0.58257,-3.28125 0.33471,-6.83584 c 0.31404,-6.41383 0.26107,-4.68979 0.10702,-8.86004 0.5685,-2.52022 0.34369,-1.98293 3.10874,-2.36167 3.62016,-0.49585 3.4514,0.4636 4.10104,3.84516 0.10067,0.52412 0.77701,1.70876 0.77564,7.72097 -0.002,10.09266 0.24467,7.51632 -0.62396,9.06455 -0.80141,1.42953 -0.70073,1.45773 -2.32638,1.82145 -1.00935,0.22584 -3.81921,-0.0884 -2.78225,-0.002 z"
         id="path4"
         transform="translate(-3.6220472e-6)" /><rect
         style="fill:#00ae8b;fill-opacity:1;stroke-width:13.743;stroke-dasharray:none"
         id="rect4"
         width="56.051083"
         height="169.65128"
         x="-92.385948"
         y="43.151623"
         transform="matrix(-1,0,0,1,-3.6220472e-6,4.7244095e-7)" /><rect
         width="256"
         height="256"
         fill="none"
         id="rect1-3"
         x="0"
         y="0" /><polyline
         points="96 216 96 40 32 40 32 216"
         fill="none"
         stroke="currentColor"
         stroke-linecap="round"
         stroke-linejoin="round"
         stroke-width="12"
         id="polyline1" /><polyline
         points="224 216 224 88 160 88 160 216"
         fill="none"
         stroke="currentColor"
         stroke-linecap="round"
         stroke-linejoin="round"
         stroke-width="12"
         id="polyline2"
         style="display:inline;fill:#d06439;fill-opacity:1" /><line
         x1="160"
         y1="136"
         x2="96"
         y2="136"
         fill="none"
         stroke="currentColor"
         stroke-linecap="round"
         stroke-linejoin="round"
         stroke-width="12"
         id="line2-7" /><line
         x1="64"
         y1="72"
         x2="64"
         y2="88"
         fill="none"
         stroke="currentColor"
         stroke-linecap="round"
         stroke-linejoin="round"
         stroke-width="12"
         id="line3-5" /><line
         x1="64"
         y1="120"
         x2="64"
         y2="136"
         fill="none"
         stroke="currentColor"
         stroke-linecap="round"
         stroke-linejoin="round"
         stroke-width="12"
         id="line4-3" /><line
         x1="64"
         y1="168"
         x2="64"
         y2="184"
         fill="none"
         stroke="currentColor"
         stroke-linecap="round"
         stroke-linejoin="round"
         stroke-width="12"
         id="line5-5" /><line
         x1="192"
         y1="168"
         x2="192"
         y2="184"
         fill="none"
         stroke="currentColor"
         stroke-linecap="round"
         stroke-linejoin="round"
         stroke-width="12"
         id="line7" /><line
         x1="192"
         y1="120"
         x2="192"
         y2="136"
         fill="none"
         stroke="currentColor"
         stroke-linecap="round"
         stroke-linejoin="round"
         stroke-width="12"
         id="line8" /><line
         x1="128"
         y1="168"
         x2="128"
         y2="184"
         fill="none"
         stroke="currentColor"
         stroke-linecap="round"
         stroke-linejoin="round"
         stroke-width="12"
         id="line6" /><line
         x1="16"
         y1="216"
         x2="240"
         y2="216"
         fill="none"
         stroke="currentColor"
         stroke-linecap="round"
         stroke-linejoin="round"
         stroke-width="12"
         id="line1-6"
         transform="translate(-3.6220472e-6)" /></g><g
       id="g1"
       transform="matrix(0.26458333,0,0,0.26458333,66.64606,67.460214)"><rect
         style="fill:#80c4d9;fill-opacity:1;stroke-width:16.5456;stroke-dasharray:none"
         id="rect5"
         width="197.2093"
         height="44.186047"
         x="28.667505"
         y="149.35782"
         ry="22.093023" /><rect
         width="256"
         height="256"
         fill="none"
         id="rect1"
         x="0"
         y="0" /><line
         x1="64"
         y1="56"
         x2="64"
         y2="200"
         fill="none"
         stroke="currentColor"
         stroke-linecap="round"
         stroke-linejoin="round"
         stroke-width="12"
         id="line1" /><line
         x1="192"
         y1="56"
         x2="192"
         y2="200"
         fill="none"
         stroke="currentColor"
         stroke-linecap="round"
         stroke-linejoin="round"
         stroke-width="12"
         id="line2" /><path
         d="M 24,115.35 A 64,64 0 0 0 64,56 a 64,64 0 0 0 128,0 64,64 0 0 0 40,59.35"
         fill="none"
         stroke="currentColor"
         stroke-linecap="round"
         stroke-linejoin="round"
         stroke-width="12"
         id="path2" /><line
         x1="152"
         y1="115.35"
         x2="152"
         y2="168"
         fill="none"
         stroke="currentColor"
         stroke-linecap="round"
         stroke-linejoin="round"
         stroke-width="12"
         id="line3"
         style="stroke-width:10.1102;stroke-dasharray:none" /><line
         x1="104"
         y1="115.35"
         x2="104"
         y2="168"
         fill="none"
         stroke="currentColor"
         stroke-linecap="round"
         stroke-linejoin="round"
         stroke-width="12"
         id="line4"
         style="stroke-width:10.1102;stroke-dasharray:none" /><line
         x1="24"
         y1="168"
         x2="232"
         y2="168"
         fill="none"
         stroke="currentColor"
         stroke-linecap="round"
         stroke-linejoin="round"
         stroke-width="12"
         id="line5" /></g><g
       id="g4"
       transform="matrix(0.26458333,0,0,0.26458333,126.90455,64.002614)"><rect
         style="fill:#a36941;fill-opacity:1;stroke-width:17.5461;stroke-dasharray:none"
         id="rect6"
         width="60.465115"
         height="61.860466"
         x="56.732719"
         y="137.63522"
         ry="24.845594"
         rx="0" /><rect
         width="256"
         height="256"
         fill="none"
         id="rect1-1"
         x="0"
         y="0" /><line
         x1="40"
         y1="136"
         x2="128"
         y2="136"
         fill="none"
         stroke="currentColor"
         stroke-linecap="round"
         stroke-linejoin="round"
         stroke-width="12"
         id="line1-27" /><line
         x1="24"
         y1="200"
         x2="232"
         y2="200"
         fill="none"
         stroke="currentColor"
         stroke-linecap="round"
         stroke-linejoin="round"
         stroke-width="12"
         id="line2-0" /><line
         x1="56"
         y1="136"
         x2="56"
         y2="200"
         fill="none"
         stroke="currentColor"
         stroke-linecap="round"
         stroke-linejoin="round"
         stroke-width="12"
         id="line3-9" /><line
         x1="112"
         y1="136"
         x2="112"
         y2="200"
         fill="none"
         stroke="currentColor"
         stroke-linecap="round"
         stroke-linejoin="round"
         stroke-width="12"
         id="line4-36" /><line
         x1="40"
         y1="168"
         x2="128"
         y2="168"
         fill="none"
         stroke="currentColor"
         stroke-linecap="round"
         stroke-linejoin="round"
         stroke-width="12"
         id="line5-0" /><line
         x1="192"
         y1="200"
         x2="192"
         y2="160"
         fill="none"
         stroke="currentColor"
         stroke-linecap="round"
         stroke-linejoin="round"
         stroke-width="12"
         id="line6-6" /><polygon
         points="224,160 160,160 192,32 "
         fill="none"
         stroke="currentColor"
         stroke-linecap="round"
         stroke-linejoin="round"
         stroke-width="12"
         id="polygon6"
         style="fill:#1ac41a;fill-opacity:1" /><circle
         cx="116"
         cy="68"
         r="20"
         fill="none"
         stroke="currentColor"
         stroke-linecap="round"
         stroke-linejoin="round"
         stroke-width="12"
         id="circle6"
         style="fill:#f3f358;fill-opacity:1" /></g><g
       id="g3"
       transform="matrix(0.41201356,0,0,0.41201356,189.53155,29.116097)"><path
         style="fill:#005500;fill-opacity:1;stroke-width:3.90817;stroke-dasharray:none"
         d="m 15.90078,201.00725 c 0.0585,-0.15238 9.076095,-16.47914 20.039162,-36.28169 l 19.932845,-36.00462 37.748804,0.0751 37.748789,0.0751 19.75096,35.61295 c 10.86304,19.58713 19.89349,35.88006 20.06769,36.20652 0.30129,0.56458 -3.48262,0.59355 -77.538908,0.59355 -42.820606,0 -77.807812,-0.12468 -77.749342,-0.27707 z"
         id="path6" /><path
         style="fill:#ececec;fill-opacity:1;stroke-width:1.6223;stroke-dasharray:none"
         d="m 213.80645,80.728547 c 0.10951,-0.169284 2.94086,-4.986203 6.29191,-10.704264 3.35103,-5.718059 6.21649,-10.502665 6.36765,-10.632458 0.70804,-0.607907 1.82916,-0.54739 2.45508,0.132523 0.30364,0.329839 12.64965,21.256045 12.64965,21.440879 0,0.03911 -6.29177,0.07111 -13.9817,0.07111 h -13.98169 z"
         id="path7"
         transform="matrix(2.4271046,0,0,2.4271046,-457.56375,-70.070444)" /><rect
         width="256"
         height="256"
         fill="none"
         id="rect1-6"
         x="0"
         y="0" /><path
         d="m 14.3488,200.90697 73.1,-124.059999 a 8,8 0 0 1 13.8,0 l 73.1,124.059999 z"
         fill="none"
         stroke="currentColor"
         stroke-linecap="round"
         stroke-linejoin="round"
         stroke-width="12"
         id="path1"
         style="stroke-width:7.63082;stroke-dasharray:none" /><line
         x1="56.698799"
         y1="128.90697"
         x2="131.99879"
         y2="128.90697"
         fill="none"
         stroke="currentColor"
         stroke-linecap="round"
         stroke-linejoin="round"
         stroke-width="12"
         id="line1-2"
         style="stroke-width:7.38811;stroke-dasharray:none" /><path
         d="m 157.85849,167.23499 26.99727,-45.55892 a 6.5329148,6.5329148 0 0 1 11.23661,0 l 44.56264,75.19385 h -65.32914"
         fill="none"
         stroke="currentColor"
         stroke-linecap="round"
         stroke-linejoin="round"
         stroke-width="9.79937"
         id="path2-9"
         style="fill:#88aa00;stroke-width:7.37112;stroke-dasharray:none" /></g></g></svg>
