<svg clip-rule="evenodd" fill-rule="evenodd" stroke-linejoin="round" stroke-miterlimit="2" viewBox="0 0 1161 589" xmlns="http://www.w3.org/2000/svg"><g transform="matrix(.5 0 0 1 -69.817 -343.8328)"><path d="m497.764 889.378.709-.605c7.752-7.009 18.36-18.825 31.848-34.259 72.097-82.498 220.125-266.336 408.102-385.256 109.867-69.502 235.347-115.938 362.457-114.832 57.19.693 114.9 11.335 171.19 30.16 62.91 21.037 124.73 52.266 183.02 89.446 186.8 119.151 341.53 299.168 415.82 380.285 13.66 14.911 24.27 26.386 31.91 33.269 2.37-1.46 4.91-3.141 7.04-4.765 36.04-27.428 98.82-93.805 166.08-138.915 41.24-27.66 84.6-47.244 124.08-46.706 3.09.004 5.59 1.263 5.58 2.808-.01 1.546-2.52 2.797-5.62 2.792-36.39.39-73.19 20.168-108.8 46.518-62.91 46.555-119.79 114.11-153.33 142.262-7.82 6.562-14.94 11.175-20.47 13.581-6.9 3.001-13.73 3.638-19.01 3.447-3.86-.14-11.77-1.668-19.41-6.913-8.71-5.973-23.46-19.638-42.98-38.975-79.18-78.422-243.36-252.729-432.95-367.777-45.2-27.429-91.69-51.446-138.92-69.798-54.52-21.184-109.48-34.881-164.99-35.571-109.41-1.773-213.35 41.202-310.884 99.872-190.712 114.719-349.685 292.443-426.687 372.243-18.958 19.647-33.322 33.523-42.077 39.503-7.226 4.936-14.746 6.347-18.7 6.407-7.287.11-22.415-4.817-36.716-16.524-34.063-27.883-92.897-94.391-155.869-140.899-36.308-26.817-73.478-47.058-108.369-48.311-2.058-.05-3.648-.927-3.548-1.956.101-1.029 1.854-1.824 3.912-1.774 36.935.476 78.966 20.41 119.847 47.833 67.148 45.044 131.992 110.157 168.422 137.293 3.01 2.242 6.438 4.41 9.313 6.117z" transform="translate(0 2.05086)"/><path d="m200.807 702s223.166-19.769 548.322-31.795c85.48-3.162 177.973-5.802 275.351-7.565 88.36-1.599 180.72-2.61 275.47-2.159 75.12-.066 148.84.833 220.34 1.958 117.43 1.847 228.81 4.885 330.42 8.618 324.27 11.914 548.62 30.672 548.62 30.672 1.91.186 3.76-.438 4.13-1.393.37-.954-.88-1.88-2.79-2.065 0 0-222.96-24.758-547.17-42.495-101.83-5.57-213.61-10.453-331.58-13.396-71.96-1.795-146.22-2.642-221.87-2.889-95.43.227-188.45 1.59-277.35 4.155-97.813 2.822-190.628 6.915-276.306 11.559-325.236 17.63-547.201 42.795-547.201 42.795-2.208.223-3.638 1.3-3.192 2.404.446 1.103 2.599 1.818 4.806 1.596z" transform="translate(0 -25.0032)"/><path d="m200.375 701.834s223.594-9.165 549.635-14.195c85.376-1.317 177.752-2.365 275-3.021 88.2-.595 180.38-.979 274.95-.565 74.98-.02 148.57.488 219.95.983 117.26.813 228.5 2.073 329.98 3.665 325.03 5.1 549.7 13.453 549.7 13.453 2.38.114 4.49-.759 4.72-1.947.23-1.189-1.52-2.247-3.9-2.361 0 0-224.17-13.169-549.27-22.895-101.58-3.039-213-5.75-330.5-7.397-71.57-1.004-145.39-1.429-220.6-1.628-94.87.19-187.34.906-275.77 2.328-97.448 1.568-189.97 3.847-275.439 6.415-326.11 9.797-549.206 23.497-549.206 23.497-2.025.104-3.5 1.01-3.293 2.022.208 1.012 2.019 1.749 4.043 1.646z" transform="translate(0 .007397)"/><path d="m794.32 600s-.754 8.231-1.389 19.344c-.337 5.908-.759 12.623-.82 19.344-.048 5.29.14 10.581.375 15.475.626 13.015 1.671 23.212 1.671 23.212 0 1.612 2.618 2.921 5.843 2.921s5.843-1.309 5.843-2.921c0 0 1.045-10.197 1.671-23.212.235-4.894.423-10.185.375-15.475-.061-6.721-.483-13.436-.82-19.344-.635-11.113-1.389-19.344-1.389-19.344 0-1.567-2.545-2.84-5.68-2.84s-5.68 1.273-5.68 2.84z"/><path d="m794.32 603.9s-.754 8.076-1.389 18.98c-.337 5.797-.759 12.386-.82 18.981-.048 5.191.14 10.382.375 15.184.626 12.772 1.671 22.777 1.671 22.777 0 1.612 2.618 2.921 5.843 2.921s5.843-1.309 5.843-2.921c0 0 1.045-10.005 1.671-22.777.235-4.802.423-9.993.375-15.184-.061-6.595-.483-13.184-.82-18.981-.635-10.904-1.389-18.98-1.389-18.98 0-1.567-2.545-2.84-5.68-2.84s-5.68 1.273-5.68 2.84z" transform="translate(1000)"/><path d="m794.32 603.9s-.754 6.179-1.389 14.535c-.337 4.439-.759 9.483-.82 14.534-.048 3.976.14 7.951.375 11.628.626 9.788 1.671 17.442 1.671 17.442 0 1.612 2.618 2.922 5.843 2.922s5.843-1.31 5.843-2.922c0 0 1.045-7.654 1.671-17.442.235-3.677.423-7.652.375-11.628-.061-5.051-.483-10.095-.82-14.534-.635-8.356-1.389-14.535-1.389-14.535 0-1.567-2.545-2.84-5.68-2.84s-5.68 1.273-5.68 2.84z" transform="translate(1100 37.9609)"/><path d="m794.32 603.9s-.754 6.179-1.389 14.535c-.337 4.439-.759 9.483-.82 14.534-.048 3.976.14 7.951.375 11.628.626 9.788 1.671 17.442 1.671 17.442 0 1.612 2.618 2.922 5.843 2.922s5.843-1.31 5.843-2.922c0 0 1.045-7.654 1.671-17.442.235-3.677.423-7.652.375-11.628-.061-5.051-.483-10.095-.82-14.534-.635-8.356-1.389-14.535-1.389-14.535 0-1.567-2.545-2.84-5.68-2.84s-5.68 1.273-5.68 2.84z" transform="translate(-100 34.1382)"/><path d="m794.32 603.9s-.755 16.405-1.389 38.518c-.337 11.764-.759 25.14-.82 38.518-.048 10.535.14 21.069.375 30.815.626 25.897 1.671 46.222 1.671 46.222 0 1.612 2.618 2.921 5.843 2.921s5.843-1.309 5.843-2.921c0 0 1.045-20.325 1.671-46.222.235-9.746.423-20.28.375-30.815-.061-13.378-.483-26.754-.82-38.518-.634-22.113-1.389-38.518-1.389-38.518 0-1.567-2.545-2.84-5.68-2.84s-5.68 1.273-5.68 2.84z" transform="translate(1200 42.0274)"/><path d="m794.32 603.9s-.755 16.405-1.389 38.518c-.337 11.764-.759 25.14-.82 38.518-.048 10.535.14 21.069.375 30.815.626 25.897 1.671 46.222 1.671 46.222 0 1.612 2.618 2.921 5.843 2.921s5.843-1.309 5.843-2.921c0 0 1.045-20.325 1.671-46.222.235-9.746.423-20.28.375-30.815-.061-13.378-.483-26.754-.82-38.518-.634-22.113-1.389-38.518-1.389-38.518 0-1.567-2.545-2.84-5.68-2.84s-5.68 1.273-5.68 2.84z" transform="translate(-200 42.0274)"/><path d="m794.32 603.9s-.755 26.226-1.389 61.569c-.337 18.803-.759 40.185-.82 61.569-.048 16.838.14 33.676.375 49.255.626 41.389 1.671 73.883 1.671 73.883 0 1.612 2.618 2.921 5.843 2.921s5.843-1.309 5.843-2.921c0 0 1.045-32.494 1.671-73.883.235-15.579.423-32.417.375-49.255-.061-21.384-.483-42.766-.82-61.569-.634-35.343-1.389-61.569-1.389-61.569 0-1.567-2.545-2.84-5.68-2.84s-5.68 1.273-5.68 2.84z" transform="translate(1300 49.8242)"/><path d="m794.32 603.9s-.755 26.226-1.389 61.569c-.337 18.803-.759 40.185-.82 61.569-.048 16.838.14 33.676.375 49.255.626 41.389 1.671 73.883 1.671 73.883 0 1.612 2.618 2.921 5.843 2.921s5.843-1.309 5.843-2.921c0 0 1.045-32.494 1.671-73.883.235-15.579.423-32.417.375-49.255-.061-21.384-.483-42.766-.82-61.569-.634-35.343-1.389-61.569-1.389-61.569 0-1.567-2.545-2.84-5.68-2.84s-5.68 1.273-5.68 2.84z" transform="translate(-300 49.8242)"/><path d="m795.206 599.393s-.426 7.344-.769 17.247c-.182 5.267-.407 11.256-.425 17.247-.014 4.717.121 9.434.257 13.798.362 11.597.906 20.696.906 20.696v2.489h9.65v-2.489s.544-9.099.906-20.696c.136-4.364.271-9.081.257-13.798-.018-5.991-.243-11.98-.425-17.247-.343-9.903-.769-17.247-.769-17.247v-2.473h-9.588z" transform="matrix(1 0 0 .96929 1500 87.5419)"/><path d="m795.206 599.393s-.426 7.344-.769 17.247c-.182 5.267-.407 11.256-.425 17.247-.014 4.717.121 9.434.257 13.798.362 11.597.906 20.696.906 20.696v2.409h9.65v-2.409s.544-9.099.906-20.696c.136-4.364.271-9.081.257-13.798-.018-5.991-.243-11.98-.425-17.247-.343-9.903-.769-17.247-.769-17.247v-2.393h-9.588z" transform="matrix(1 0 0 1.00163 -500 69.6094)"/><path d="m794.32 611.962s-.755 16.598-1.389 38.972c-.337 11.902-.759 25.435-.82 38.971-.048 10.658.14 21.316.375 31.177.626 26.202 1.671 46.766 1.671 46.766 0 1.612 2.618 2.921 5.843 2.921s5.843-1.309 5.843-2.921c0 0 1.045-20.564 1.671-46.766.235-9.861.423-20.519.375-31.177-.061-13.536-.483-27.069-.82-38.971-.634-22.374-1.389-38.972-1.389-38.972 0-1.567-2.545-2.839-5.68-2.839s-5.68 1.272-5.68 2.839z" transform="translate(1400 49.8242)"/><path d="m794.32 611.962s-.755 16.598-1.389 38.972c-.337 11.902-.759 25.435-.82 38.971-.048 10.658.14 21.316.375 31.177.626 26.202 1.671 46.766 1.671 46.766 0 1.612 2.618 2.921 5.843 2.921s5.843-1.309 5.843-2.921c0 0 1.045-20.564 1.671-46.766.235-9.861.423-20.519.375-31.177-.061-13.536-.483-27.069-.82-38.971-.634-22.374-1.389-38.972-1.389-38.972 0-1.567-2.545-2.839-5.68-2.839s-5.68 1.272-5.68 2.839z" transform="translate(-400 50.2357)"/><path d="m794.32 525.531s-.755 16.167-1.389 37.961c-.337 11.594-.759 24.776-.82 37.961-.048 10.382.14 20.764.375 30.369.626 25.523 1.671 45.553 1.671 45.553 0 1.612 2.618 2.921 5.843 2.921s5.843-1.309 5.843-2.921c0 0 1.045-20.03 1.671-45.553.235-9.605.423-19.987.375-30.369-.061-13.185-.483-26.367-.82-37.961-.634-21.794-1.389-37.961-1.389-37.961 0-1.567-2.545-2.84-5.68-2.84s-5.68 1.273-5.68 2.84z" transform="translate(100 -2.70032)"/><path d="m794.32 525.531s-.755 16.167-1.389 37.961c-.337 11.594-.759 24.776-.82 37.961-.048 10.382.14 20.764.375 30.369.626 25.523 1.671 45.553 1.671 45.553 0 1.612 2.618 2.921 5.843 2.921s5.843-1.309 5.843-2.921c0 0 1.045-20.03 1.671-45.553.235-9.605.423-19.987.375-30.369-.061-13.185-.483-26.367-.82-37.961-.634-21.794-1.389-37.961-1.389-37.961 0-1.567-2.545-2.84-5.68-2.84s-5.68 1.273-5.68 2.84z" transform="translate(900 2.44672)"/><path d="m794.32 525.531s-.755 22.483-1.389 52.781c-.337 16.12-.759 34.45-.82 52.782-.048 14.435.14 28.87.375 42.225.626 35.483 1.671 63.337 1.671 63.337 0 1.613 2.618 2.922 5.843 2.922s5.843-1.309 5.843-2.922c0 0 1.045-27.854 1.671-63.337.235-13.355.423-27.79.375-42.225-.061-18.332-.483-36.662-.82-52.782-.634-30.298-1.389-52.781-1.389-52.781 0-1.567-2.545-2.84-5.68-2.84s-5.68 1.273-5.68 2.84z" transform="translate(200 -61.9816)"/><path d="m794.32 525.531s-.755 22.483-1.389 52.781c-.337 16.12-.759 34.45-.82 52.782-.048 14.435.14 28.87.375 42.225.626 35.483 1.671 63.337 1.671 63.337 0 1.613 2.618 2.922 5.843 2.922s5.843-1.309 5.843-2.922c0 0 1.045-27.854 1.671-63.337.235-13.355.423-27.79.375-42.225-.061-18.332-.483-36.662-.82-52.782-.634-30.298-1.389-52.781-1.389-52.781 0-1.567-2.545-2.84-5.68-2.84s-5.68 1.273-5.68 2.84z" transform="translate(800 -61.9816)"/><path d="m794.32 525.531s-.755 27.412-1.389 64.352c-.337 19.653-.759 42.001-.82 64.351-.048 17.6.14 35.199.375 51.481.626 43.26 1.671 77.222 1.671 77.222 0 1.613 2.618 2.922 5.843 2.922s5.843-1.309 5.843-2.921c0 0 1.045-33.963 1.671-77.223.235-16.282.423-33.881.375-51.481-.061-22.35-.483-44.698-.82-64.351-.634-36.94-1.389-64.352-1.389-64.352 0-1.567-2.545-2.84-5.68-2.84s-5.68 1.273-5.68 2.84z" transform="translate(300 -108.263)"/><path d="m794.32 525.531s-.755 27.412-1.389 64.352c-.337 19.653-.759 42.001-.82 64.351-.048 17.6.14 35.199.375 51.481.626 43.26 1.671 77.223 1.671 77.223 0 1.612 2.618 2.921 5.843 2.921s5.843-1.309 5.843-2.921c0 0 1.045-33.963 1.671-77.223.235-16.282.423-33.881.375-51.481-.061-22.35-.483-44.698-.82-64.351-.634-36.94-1.389-64.352-1.389-64.352 0-1.567-2.545-2.84-5.68-2.84s-5.68 1.273-5.68 2.84z" transform="translate(700 -108.263)"/><path d="m794.32 525.531s-.755 31.246-1.389 73.349c-.337 22.401-.759 47.874-.82 73.348-.048 20.06.14 40.119.375 58.678.626 49.307 1.671 88.019 1.671 88.019 0 1.612 2.618 2.921 5.843 2.921s5.843-1.309 5.843-2.921c0 0 1.045-38.712 1.671-88.019.235-18.559.423-38.618.375-58.678-.061-25.474-.483-50.947-.82-73.348-.634-42.103-1.389-73.349-1.389-73.349 0-1.567-2.545-2.84-5.68-2.84s-5.68 1.273-5.68 2.84z" transform="translate(400 -144.25)"/><path d="m794.32 525.531s-.755 31.246-1.389 73.349c-.337 22.401-.759 47.874-.82 73.348-.048 20.06.14 40.119.375 58.678.626 49.307 1.671 88.019 1.671 88.019 0 1.612 2.618 2.921 5.843 2.921s5.843-1.309 5.843-2.921c0 0 1.045-38.712 1.671-88.019.235-18.559.423-38.618.375-58.678-.061-25.474-.483-50.947-.82-73.348-.634-42.103-1.389-73.349-1.389-73.349 0-1.567-2.545-2.84-5.68-2.84s-5.68 1.273-5.68 2.84z" transform="translate(600 -144.25)"/><path d="m794.32 525.531s-.755 31.794-1.389 74.635c-.337 22.794-.759 48.714-.82 74.635-.048 20.412.14 40.824.375 59.708.626 50.172 1.671 89.563 1.671 89.563 0 1.612 2.618 2.921 5.843 2.921s5.843-1.309 5.843-2.921c0 0 1.045-39.391 1.671-89.563.235-18.884.423-39.296.375-59.708-.061-25.921-.483-51.841-.82-74.635-.634-42.841-1.389-74.635-1.389-74.635 0-1.567-2.545-2.84-5.68-2.84s-5.68 1.273-5.68 2.84z" transform="translate(500 -149.397)"/></g></svg>