<svg viewBox="0 0 90 90" xmlns="http://www.w3.org/2000/svg" xmlns:xlink="http://www.w3.org/1999/xlink"><linearGradient id="a" gradientTransform="matrix(1 0 0 -1 -67.09799 2219.995)" gradientUnits="userSpaceOnUse" x1="143.917" x2="125.854" y1="2125.439" y2="2157.331"><stop offset="0" stop-color="#fb7655"/><stop offset=".41" stop-color="#e42b1e"/><stop offset=".99" stop-color="#900"/><stop offset="1" stop-color="#900"/></linearGradient><linearGradient id="b"><stop offset="0" stop-color="#871101"/><stop offset=".99" stop-color="#911209"/><stop offset="1" stop-color="#911209"/></linearGradient><linearGradient id="c" gradientTransform="matrix(1 0 0 -1 -67.09799 2219.995)" gradientUnits="userSpaceOnUse" x1="152.913" x2="129.634" xlink:href="#b" y1="2152.229" y2="2167.85"/><linearGradient id="d" gradientTransform="matrix(1 0 0 -1 -67.09799 2219.995)" gradientUnits="userSpaceOnUse" x1="134.287" x2="111.008" xlink:href="#b" y1="2124.472" y2="2140.093"/><linearGradient id="e" gradientTransform="matrix(1 0 0 -1 -67.09799 2219.995)" gradientUnits="userSpaceOnUse" x1="85.411" x2="89.02" y1="2163.54" y2="2140.086"><stop offset="0" stop-color="#fff"/><stop offset=".23" stop-color="#e57252"/><stop offset=".46" stop-color="#de3b20"/><stop offset=".99" stop-color="#a60003"/><stop offset="1" stop-color="#a60003"/></linearGradient><linearGradient id="f" gradientTransform="matrix(1 0 0 -1 -67.09799 2219.995)" gradientUnits="userSpaceOnUse" x1="110.233" x2="111.563" y1="2185.439" y2="2161.502"><stop offset="0" stop-color="#fff"/><stop offset=".23" stop-color="#e4714e"/><stop offset=".56" stop-color="#be1a0d"/><stop offset=".99" stop-color="#a80d00"/><stop offset="1" stop-color="#a80d00"/></linearGradient><linearGradient id="g" gradientTransform="matrix(1 0 0 -1 -67.09799 2219.995)" gradientUnits="userSpaceOnUse" x1="132.261" x2="136.242" y1="2207.563" y2="2190.407"><stop offset="0" stop-color="#fff"/><stop offset=".18" stop-color="#e46342"/><stop offset=".4" stop-color="#c82410"/><stop offset=".99" stop-color="#a80d00"/><stop offset="1" stop-color="#a80d00"/></linearGradient><linearGradient id="h" gradientTransform="matrix(1 0 0 -1 -67.09799 2219.995)" gradientUnits="userSpaceOnUse" x1="120.105" x2="137.258" y1="2213.604" y2="2222.18"><stop offset="0" stop-color="#fff"/><stop offset=".54" stop-color="#c81f11"/><stop offset=".99" stop-color="#bf0905"/><stop offset="1" stop-color="#bf0905"/></linearGradient><linearGradient id="i" gradientTransform="matrix(1 0 0 -1 -67.09799 2219.995)" gradientUnits="userSpaceOnUse" x1="70.375" x2="71.787" y1="2169.518" y2="2155.382"><stop offset="0" stop-color="#fff"/><stop offset=".31" stop-color="#de4024"/><stop offset=".99" stop-color="#bf190b"/><stop offset="1" stop-color="#bf190b"/></linearGradient><linearGradient id="j" gradientTransform="matrix(1 0 0 -1 -67.09799 2219.995)" gradientUnits="userSpaceOnUse" x1="60.669" x2="127.036" y1="2151.563" y2="2219.806"><stop offset="0" stop-color="#bd0012"/><stop offset=".07" stop-color="#fff"/><stop offset=".17" stop-color="#fff"/><stop offset=".27" stop-color="#c82f1c"/><stop offset=".33" stop-color="#820c01"/><stop offset=".46" stop-color="#a31601"/><stop offset=".72" stop-color="#b31301"/><stop offset=".99" stop-color="#e82609"/><stop offset="1" stop-color="#e82609"/></linearGradient><linearGradient id="k" gradientTransform="matrix(1 0 0 -1 -67.09799 2219.995)" gradientUnits="userSpaceOnUse" x1="111.505" x2="91.514" y1="2144.677" y2="2149.611"><stop offset="0" stop-color="#8c0c01"/><stop offset=".54" stop-color="#990c00"/><stop offset=".99" stop-color="#a80d0e"/><stop offset="1" stop-color="#a80d0e"/></linearGradient><linearGradient id="l" gradientTransform="matrix(1 0 0 -1 -67.09799 2219.995)" gradientUnits="userSpaceOnUse" x1="145.839" x2="128.08" y1="2168.67" y2="2184.586"><stop offset="0" stop-color="#7e110b"/><stop offset=".99" stop-color="#9e0c00"/><stop offset="1" stop-color="#9e0c00"/></linearGradient><linearGradient id="m" gradientTransform="matrix(1 0 0 -1 -67.09799 2219.995)" gradientUnits="userSpaceOnUse" x1="152.364" x2="143.518" y1="2197.874" y2="2207.331"><stop offset="0" stop-color="#79130d"/><stop offset=".99" stop-color="#9e120b"/><stop offset="1" stop-color="#9e120b"/></linearGradient><radialGradient id="n" cx="130.847" cy="2184.281" gradientTransform="matrix(1 0 0 -1 -67.09799 2219.995)" gradientUnits="userSpaceOnUse" r="21.762"><stop offset="0" stop-color="#a80d00"/><stop offset=".99" stop-color="#7e0e08"/><stop offset="1" stop-color="#7e0e08"/></radialGradient><radialGradient id="o" cx="100.707" cy="2155.602" gradientTransform="matrix(1 0 0 -1 -67.09799 2219.995)" gradientUnits="userSpaceOnUse" r="28.932"><stop offset="0" stop-color="#a30c00"/><stop offset=".99" stop-color="#800e08"/><stop offset="1" stop-color="#800e08"/></radialGradient><linearGradient id="p" gradientTransform="matrix(1 0 0 -1 -67.09799 2219.995)" gradientUnits="userSpaceOnUse" x1="80.214" x2="73.005" y1="2133.309" y2="2157.766"><stop offset="0" stop-color="#8b2114"/><stop offset=".43" stop-color="#9e100a"/><stop offset=".99" stop-color="#b3100c"/><stop offset="1" stop-color="#b3100c"/></linearGradient><linearGradient id="q" gradientTransform="matrix(1 0 0 -1 -67.09799 2219.995)" gradientUnits="userSpaceOnUse" x1="135.518" x2="151.68" y1="2214.356" y2="2207.222"><stop offset="0" stop-color="#b31000"/><stop offset=".44" stop-color="#910f08"/><stop offset=".99" stop-color="#791c12"/><stop offset="1" stop-color="#791c12"/></linearGradient><path d="m67.92601 57.761975-48.886 29.028 63.3-4.294 4.875-63.828z" fill="url(#a)"/><path d="m82.44301 82.451975-5.441-37.552-14.818 19.57z" fill="url(#c)"/><path d="m82.51601 82.451975-39.858-3.129-23.405 7.385z" fill="url(#d)"/><path d="m19.30801 86.716975 9.957-32.62-21.9099999 4.686z" fill="url(#e)"/><path d="m62.17901 64.576975-9.162-35.887-26.219 24.577z" fill="url(#f)"/><path d="m85.13601 29.195975-24.785-20.2430001-6.901 22.3130001z" fill="url(#g)"/><path d="m73.54401 1.7359749-14.576 8.056-9.197-8.164z" fill="url(#h)"/><path d="m1.5900101 69.724975 6.107-11.137-4.941-13.267z" fill="url(#i)"/><path d="m2.4280101 44.899975 4.97 14.098 21.5949999-4.845 24.655-22.913 6.958-22.1000001-10.955-7.737-18.627 6.971c-5.868 5.4580001-17.256 16.2580001-17.667 16.4610001-.406.208-7.5189999 13.653-10.9289999 20.065z" fill="#fff"/><path d="m19.87901 19.575975c12.719-12.6110001 29.115-20.06100013 35.407-13.7120001 6.289 6.3480001-.38 21.7760001-13.099 34.3820001-12.718 12.607-28.912 20.468-35.1989999 14.119-6.29400005-6.344.173-22.183 12.8909999-34.789z" fill="url(#j)"/><path d="m19.30801 86.703975 9.879-32.724 32.811 10.541c-11.864 11.125-25.058 20.528-42.69 22.183z" fill="url(#k)"/><path d="m53.69101 31.175975 8.423 33.363c9.91-10.419 18.804-21.621 23.159-35.476z" fill="url(#l)"/><path d="m85.18701 29.230975c3.371-10.174 4.148-24.7680001-11.746-27.4770001l-13.043 7.204z" fill="url(#m)"/><path d="m1.5900101 69.577975c.467 16.789 12.5809999 17.04 17.7409999 17.188l-11.9199999-27.837z" fill="#9e1209"/><path d="m53.73901 31.226975c7.615 4.68 22.96 14.08 23.271 14.253.484.272 6.617-10.342 8.008-16.34z" fill="url(#n)"/><path d="m29.17401 53.980975 13.207 25.48c7.81-4.235 13.924-9.395 19.526-14.922z" fill="url(#o)"/><path d="m7.3590101 58.963975-1.872 22.282c3.532 4.823 8.3889999 5.241 13.4849999 4.866-3.687-9.175-11.0509999-27.521-11.6129999-27.148z" fill="url(#p)"/><path d="m60.32101 9.0149749 26.237 3.6830001c-1.401-5.9350001-5.701-9.7630001-13.03-10.9610001z" fill="url(#q)"/></svg>