<?xml version="1.0" encoding="UTF-8" standalone="no"?>
<!DOCTYPE svg PUBLIC "-//W3C//DTD SVG 1.1//EN" "http://www.w3.org/Graphics/SVG/1.1/DTD/svg11.dtd">
<svg width="100%" height="100%" viewBox="0 0 848 672" version="1.1" xmlns="http://www.w3.org/2000/svg" xmlns:xlink="http://www.w3.org/1999/xlink" xml:space="preserve" xmlns:serif="http://www.serif.com/" style="fill-rule:evenodd;clip-rule:evenodd;stroke-linejoin:round;stroke-miterlimit:2;">
    <g transform="matrix(1,0,0,1,-29.8271,-133.509)">
        <g id="Crown" transform="matrix(1.94283,-0.342573,0.342573,1.94283,-660.715,-324.861)">
            <g transform="matrix(1,0,0,1,338.996,574.935)">
                <path d="M0,-27.85C0,-27.85 18.785,1.764 59.554,-3.329C100.137,-8.399 138.763,-35.738 153.842,-60.374C169.468,-85.906 159.961,-60.49 190.991,-33.415C215.684,-11.87 277.102,-12.028 315.753,-59.614L292.632,22.595L100.165,21.285C100.165,21.285 161.47,25.758 160.096,43.643C159.326,53.66 116.071,51.088 116.071,51.088L31.061,59.496L5.371,9.75L0,-27.85Z" style="fill:rgb(255,197,23);fill-rule:nonzero;"/>
            </g>
            <g transform="matrix(1,0,0,1,618.55,354.756)">
                <path d="M0,289.249C0,289.249 -104.394,261.224 -250.128,290.651C-258.787,292.399 -265.693,286.999 -272.548,263.325C-284.32,222.667 -299.41,158.491 -315.286,122.497C-322.292,106.616 -307.578,95.172 -292.166,130.204C-276.298,166.272 -243.438,198.323 -199.914,178.782C-154.139,158.229 -123.55,108.555 -123.312,52.434C-123.077,-3.15 -106.962,15.067 -108.599,55.936C-110.229,96.637 -91.783,155.429 -48.344,163.134C-4.904,170.841 30.828,129.504 50.446,100.077C70.063,70.651 82.679,83.258 68.896,111.754C34.333,183.22 26.392,245.81 18.685,247.911C10.978,250.015 -151.338,236.001 -203.886,246.511C-203.886,246.511 -122.61,220.12 12.379,235.534C12.379,235.534 29.32,175.511 44.608,139.78C64.694,92.838 7.242,196.532 -60.487,172.011C-108.37,154.673 -115.604,90.268 -115.604,90.268C-115.604,90.268 -137.792,170.608 -202.717,193.497C-244.926,208.376 -273.039,182.405 -280.956,172.243C-294.967,154.259 -263.016,233.499 -255.965,261.925C-248.492,292.052 -128.449,237.87 0,289.249" style="fill:rgb(33,33,33);fill-rule:nonzero;"/>
            </g>
            <g transform="matrix(1,0,0,1,594.029,470.482)">
                <path d="M0,-5.841C0,-5.841 -19.618,24.521 -31.063,20.552C-42.507,16.581 -31.297,6.538 -17.283,-5.14C-3.271,-16.818 11.21,-41.573 11.21,-41.573C11.21,-41.573 5.839,-5.14 19.149,17.515C27.045,30.952 -5.84,35.732 0,-5.841" style="fill:rgb(66,66,66);fill-rule:nonzero;"/>
            </g>
            <g transform="matrix(1,0,0,1,441.057,433.347)">
                <path d="M0,60.957C-3.873,69.645 -19.911,68.078 -34.8,38.302C-34.8,38.302 -31.994,67.963 -42.973,75.904C-53.949,83.844 -64.227,73.568 -56.052,60.49C-47.877,47.41 -42.739,25.222 -45.542,1.167C-48.345,-22.887 -34.258,17.05 -23.239,30.945C-7.125,51.263 4.086,51.789 0,60.957" style="fill:rgb(66,66,66);fill-rule:nonzero;"/>
            </g>
            <g transform="matrix(1,0,0,1,297.659,415.948)">
                <path d="M0,28.375C-2.336,28.375 -17.515,26.523 -17.516,12.262C-17.517,0.701 -4.556,0 0.934,10.627C5.999,20.434 7.475,28.375 0,28.375" style="fill:rgb(13,138,190);fill-rule:nonzero;"/>
            </g>
            <g transform="matrix(1,0,0,1,389.209,383.794)">
                <path d="M0,26.666C-3.247,27.268 -10.275,21.061 -10.977,14.287C-11.677,7.514 -2.92,-0.602 2.336,7.281C8.156,16.01 6.306,25.498 0,26.666" style="fill:rgb(180,180,0);fill-rule:nonzero;"/>
            </g>
            <g transform="matrix(1,0,0,1,501.545,321.181)">
                <path d="M0,27.855C-3.046,27.855 -9.575,16.646 -8.408,8.939C-7.24,1.232 7.18,-0.344 6.306,13.611C5.392,28.199 3.971,27.855 0,27.855" style="fill:rgb(78,29,173);fill-rule:nonzero;"/>
            </g>
            <g transform="matrix(1,0,0,1,609.379,384.265)">
                <path d="M0,23.771C-3.458,22.144 -2.015,7.656 3.424,2.822C8.863,-2.014 20.344,5.24 13.697,15.511C7.05,25.785 3.425,25.382 0,23.771" style="fill:rgb(21,125,70);fill-rule:nonzero;"/>
            </g>
            <g transform="matrix(1,0,0,1,702.186,400.827)">
                <path d="M0,20.158C-2.861,17.664 -2.361,7.414 3.341,2.08C8.77,-2.996 22.793,1.097 15.72,11.707C8.646,22.318 3.438,23.154 0,20.158" style="fill:rgb(131,50,49);fill-rule:nonzero;"/>
            </g>
        </g>
        <g id="Ruby" transform="matrix(0.124931,-0.00562128,0.00607789,0.135079,174.745,297.846)">
            <g transform="matrix(6.48717,0.291891,-0.319291,7.09613,-1103.31,-3013.49)">
                <path d="M492.075,727.687C492.075,727.687 511.923,686.462 523.625,679.117C537.681,670.295 586.678,660.725 603.421,658.913C621.404,656.966 676.779,657.945 689.299,663.27C700.978,668.238 723.32,688.114 723.32,688.114L680.943,754.052L616.74,829.727L492.075,727.687Z" style="fill:rgb(255,38,0);"/>
            </g>
            <path d="M1857.49,1784.36C2322.56,1658.81 2768.05,1651.41 3204.63,1697.71C3285.05,1813.09 3372.96,1924.57 3466.4,2033.15C3372.07,1955.33 3275.12,1875.14 3191.41,1783.46C2791.68,1747.19 2401.35,1764.7 1989.93,1861.4C1936.64,2001.72 1891.85,2105.37 1808.71,2222.64C2154.79,2449.06 2400.47,2720.22 2635.71,2991.54C2795.62,2718.53 2994.13,2533.35 3254.11,2405.95C3024.95,2645.42 2781.68,2896.93 2607.32,3154.42C2316.75,2824.93 1981.15,2513.68 1579.75,2229.09C1686.62,2090.03 1779.21,1941.78 1857.49,1784.36Z" style="fill:rgb(186,28,37);"/>
            <path d="M1539.68,2400.32C2120.96,2245.38 2718.04,2112.2 3391.29,2083.85C2984.15,2071.32 1759.42,2046.07 1539.68,2400.32Z" style="fill:rgb(186,28,37);"/>
            <path d="M1961.19,1856.46C2155.33,2180.39 2467.85,2730.43 2661.99,3054.37C2605.16,2862.24 2333.8,1946.29 1961.19,1856.46Z" style="fill:rgb(186,28,37);"/>
            <path d="M2167.88,2182.74C2326.38,2060.58 2340.25,2046.9 2603.75,1771.39C2433.18,1857.16 2191.45,1976.91 2167.88,2182.74Z" style="fill:rgb(186,28,37);"/>
            <path d="M3025.93,2140.87C2890.4,2042.43 2803.43,1962.07 2540.52,1732.57C2739.01,1825.14 2985.55,1920.43 3025.93,2140.87Z" style="fill:rgb(186,28,37);"/>
            <path d="M3220.69,1831.17C3006.84,2214.57 2785.29,2622.71 2626.7,3022.16C2679.92,2828.12 2857.93,2042.19 3220.69,1831.17Z" style="fill:rgb(186,28,37);"/>
        </g>
    </g>
</svg>
